<?xml version="1.0" encoding="UTF-8"?>
<svg version="1.1" xmlns="http://www.w3.org/2000/svg" width="300" height="300">
<path d="M0 0 C2 2 2 2 2.4375 4.3125 C2 7 2 7 -0.5625 9.375 C-3.2998933 11.78022316 -3.2998933 11.78022316 -3.25 15.0625 C-2.18828794 19.89328986 0.79309374 24.00959463 3.40625 28.1328125 C4.92155969 30.85888434 5.59554354 32.93287188 6 36 C8.23242212 33.92153802 9.95242617 32.08127197 11.5 29.4375 C13.91112542 25.5194212 15.99852235 24.27313027 20.4375 23.0625 C24.17758726 21.94703538 26.08058722 20.51393878 29 18 C29.99 17.67 30.98 17.34 32 17 C31.67 16.34 31.34 15.68 31 15 C31.66 14.01 32.32 13.02 33 12 C34.32 12 35.64 12 37 12 C36.7834375 13.0209375 36.7834375 13.0209375 36.5625 14.0625 C35.93054091 17.36273082 35.45686059 20.67144426 35 24 C33.75283203 24.39832031 33.75283203 24.39832031 32.48046875 24.8046875 C31.39378906 25.15789062 30.30710938 25.51109375 29.1875 25.875 C28.10855469 26.22304687 27.02960938 26.57109375 25.91796875 26.9296875 C22.86684198 27.91959653 22.86684198 27.91959653 20 30 C19.30580103 32.07883627 19.30580103 32.07883627 19 34.5 C16.57986035 48.15509691 12.66803876 56.25682184 1.81640625 65.1171875 C-7.15334587 71.11360986 -21.32109191 70.99475777 -31.75 69.4375 C-36.82222367 68.30859705 -41.47566073 66.16010721 -46.2277832 64.11206055 C-51.76860507 61.83924599 -56.92096343 61.31786166 -62.9140625 61.15625 C-65.66341661 61.0170422 -67.72494701 60.6091085 -70.3125 59.75 C-75.32854029 58.72978842 -78.38613467 60.04679701 -83 62 C-84.62381068 62.6695583 -86.24884408 63.33615787 -87.875 64 C-89.1125 64.50853516 -89.1125 64.50853516 -90.375 65.02734375 C-94.03124088 66.38211158 -97.76177676 67.30123332 -101.5546875 68.19140625 C-104.21333863 69.07054488 -105.77513998 70.32816446 -108 72 C-109.91303887 72.73391618 -111.85433807 73.3967152 -113.8125 74 C-115.39611328 74.51240234 -115.39611328 74.51240234 -117.01171875 75.03515625 C-117.99785156 75.35355469 -118.98398438 75.67195313 -120 76 C-125.13509749 77.60747038 -125.13509749 77.60747038 -128.4375 81.6875 C-128.623125 82.450625 -128.80875 83.21375 -129 84 C-130.32 84 -131.64 84 -133 84 C-132.34 85.32 -131.68 86.64 -131 88 C-132.32 88 -133.64 88 -135 88 C-135.33 87.34 -135.66 86.68 -136 86 C-137.64142963 84.9590934 -139.30712215 83.95495674 -141 83 C-140.67 82.01 -140.34 81.02 -140 80 C-138.00390625 79.2265625 -138.00390625 79.2265625 -135.5625 78.625 C-133.11906038 77.93830835 -133.11906038 77.93830835 -131 77 C-129.67518454 74.60470331 -129.67518454 74.60470331 -129 72 C-125.15653726 68.15653726 -121.04938561 66.71165614 -116 65 C-116 63.68 -116 62.36 -116 61 C-113.03 60.01 -110.06 59.02 -107 58 C-107 56.68 -107 55.36 -107 54 C-106.505 53.01 -106.505 53.01 -106 52 C-103.66752239 51.66073053 -101.33414529 51.32759934 -99 51 C-98.34 50.34 -97.68 49.68 -97 49 C-97.33 48.01 -97.66 47.02 -98 46 C-97.01 46 -96.02 46 -95 46 C-94.77570313 45.36578125 -94.55140625 44.7315625 -94.3203125 44.078125 C-93 42 -93 42 -90.6171875 41.171875 C-89.71226563 41.03265625 -88.80734375 40.8934375 -87.875 40.75 C-86.96492188 40.60046875 -86.05484375 40.4509375 -85.1171875 40.296875 C-84.41851562 40.19890625 -83.71984375 40.1009375 -83 40 C-84.36125 39.38125 -84.36125 39.38125 -85.75 38.75 C-88.79665618 37.10949282 -90.71126806 35.55281639 -93 33 C-93.66 34.98 -94.32 36.96 -95 39 C-100.08335725 38.84595887 -102.35754718 35.97931568 -105.64453125 32.49609375 C-106.09183594 32.00238281 -106.53914063 31.50867188 -107 31 C-106.79375 31.94875 -106.5875 32.8975 -106.375 33.875 C-106.25125 34.90625 -106.1275 35.9375 -106 37 C-108 39 -108 39 -109.875 39.265625 C-110.57625 39.26046875 -111.2775 39.2553125 -112 39.25 C-112.70125 39.25515625 -113.4025 39.2603125 -114.125 39.265625 C-116 39 -116 39 -118 37 C-118 35.68 -118 34.36 -118 33 C-117.34 33 -116.68 33 -116 33 C-116.33 27.72 -116.66 22.44 -117 17 C-117.66 17 -118.32 17 -119 17 C-120.125 13.25 -120.125 13.25 -119 11 C-110.96498906 10.21225383 -110.96498906 10.21225383 -106.9375 13.5 C-106.298125 14.325 -105.65875 15.15 -105 16 C-104.34 14.68 -103.68 13.36 -103 12 C-99.96663814 11.77106703 -97.02534949 11.63524155 -94 12 C-91.9375 14 -91.9375 14 -91 16 C-90.278125 15.360625 -89.55625 14.72125 -88.8125 14.0625 C-84.7847097 11.10878712 -81.74104175 10.83143624 -76.875 11.125 C-73 12 -73 12 -70.9375 14.25 C-69.86975025 17.38206593 -69.98965199 18.88476032 -71 22 C-71.33 22.66 -71.66 23.32 -72 24 C-71.34 24 -70.68 24 -70 24 C-69.9175 23.13375 -69.835 22.2675 -69.75 21.375 C-68.78277978 17.02250899 -67.1016956 13.36351616 -63.25390625 10.8671875 C-60.39234598 9.7662059 -57.80518438 9.57425116 -54.75 9.375 C-53.13351563 9.26285156 -53.13351563 9.26285156 -51.484375 9.1484375 C-50.66453125 9.09945312 -49.8446875 9.05046875 -49 9 C-46.94742069 12.44833324 -45.9367237 14.31661591 -46.3125 18.375 C-46.539375 19.24125 -46.76625 20.1075 -47 21 C-45.6086881 19.7577593 -45.6086881 19.7577593 -44.75 16.25 C-43.06218922 11.61891327 -40.49745601 8.248728 -36 6 C-30.82957619 5.49143372 -30.82957619 5.49143372 -28 6 C-25 8.5 -25 8.5 -23 11 C-23 10.67 -23 10.34 -23 10 C-22.875 7.625 -22.875 7.625 -22 5 C-17.85263812 2.20294199 -14.88610274 1.89604037 -10 2 C-3.81746032 -0.41269841 -3.81746032 -0.41269841 0 0 Z M-35 15 C-35.3152595 20.98993047 -34.68219822 24.63560356 -32 30 C-31.67 30 -31.34 30 -31 30 C-30.6847405 24.01006953 -31.31780178 20.36439644 -34 15 C-34.33 15 -34.66 15 -35 15 Z M-21 15 C-21 16.65 -21 18.3 -21 20 C-20.67 20 -20.34 20 -20 20 C-20 18.35 -20 16.7 -20 15 C-20.33 15 -20.66 15 -21 15 Z M-93 17 C-93.33 18.65 -93.66 20.3 -94 22 C-93.34 21.01 -92.68 20.02 -92 19 C-92.33 18.34 -92.66 17.68 -93 17 Z M-57 17 C-57.99 17.495 -57.99 17.495 -59 18 C-59 20.97 -59 23.94 -59 27 C-56.56070254 25.07423885 -54.19909405 23.19909405 -52 21 C-53.65 19.68 -55.3 18.36 -57 17 Z M-82 19 C-83.20561184 19.98267859 -83.20561184 19.98267859 -83.09765625 21.84765625 C-83.08605469 22.57855469 -83.07445312 23.30945313 -83.0625 24.0625 C-83.041875 25.361875 -83.02125 26.66125 -83 28 C-82.566875 27.525625 -82.13375 27.05125 -81.6875 26.5625 C-80 25 -80 25 -77 24 C-77.66 22.35 -78.32 20.7 -79 19 C-79.99 19 -80.98 19 -82 19 Z M-21 26 C-21.33 28.31 -21.66 30.62 -22 33 C-21.34 32.67 -20.68 32.34 -20 32 C-20 30.02 -20 28.04 -20 26 C-20.33 26 -20.66 26 -21 26 Z M-94 28 C-93 31 -93 31 -93 31 Z M-46 30 C-45.67 31.32 -45.34 32.64 -45 34 C-44.34 34 -43.68 34 -43 34 C-43.33 32.68 -43.66 31.36 -44 30 C-44.66 30 -45.32 30 -46 30 Z M-24 34 C-24.33 34.99 -24.66 35.98 -25 37 C-27.0625 38.1875 -27.0625 38.1875 -29 39 C-26.36 39.33 -23.72 39.66 -21 40 C-21.66 38.02 -22.32 36.04 -23 34 C-23.33 34 -23.66 34 -24 34 Z M-8 34 C-8.66 35.98 -9.32 37.96 -10 40 C-6.04 40 -2.08 40 2 40 C2 39.67 2 39.34 2 39 C0.906875 38.9175 -0.18625 38.835 -1.3125 38.75 C-5 38 -5 38 -6.9375 35.9375 C-7.288125 35.298125 -7.63875 34.65875 -8 34 Z M-94 47 C-94.33 47.66 -94.66 48.32 -95 49 C-93.35 48.67 -91.7 48.34 -90 48 C-91.32 47.67 -92.64 47.34 -94 47 Z " fill="#333C38" transform="translate(195,101)"/>
<path d="M0 0 C0 0.66 0 1.32 0 2 C-2.12282669 3.00460531 -4.24833021 4.00355602 -6.375 5 C-7.55835938 5.556875 -8.74171875 6.11375 -9.9609375 6.6875 C-13 8 -13 8 -15 8 C-15.0825 9.216875 -15.165 10.43375 -15.25 11.6875 C-16.48255952 22.26419317 -19.49898641 31.30396006 -27 39 C-27.93585938 40.00740234 -27.93585938 40.00740234 -28.890625 41.03515625 C-35.06830245 46.77662365 -41.92889444 47.45117416 -49.99511719 47.88134766 C-51.82680986 47.98975032 -53.65291263 48.18386331 -55.4765625 48.38671875 C-64.13343774 49.00506698 -70.19619716 46.50439874 -77.86425781 42.93188477 C-84.44989473 39.95740323 -90.00918451 39.08927417 -97.19140625 39.03515625 C-100 39 -100 39 -102 38 C-109.1519429 37.13084027 -113.98063701 38.10473553 -120.1796875 41.6328125 C-124.78878913 43.86714155 -129.71438823 44.85569994 -134.6796875 46.0078125 C-137.88561888 46.96582023 -139.44213352 47.95582513 -142 50 C-143.74669462 50.72756652 -145.52075477 51.39176965 -147.3125 52 C-148.281875 52.34160156 -149.25125 52.68320313 -150.25 53.03515625 C-151.1575 53.35355469 -152.065 53.67195313 -153 54 C-158.18923541 55.8771666 -161.92231001 58.32013342 -166 62 C-165.34 63.98 -164.68 65.96 -164 68 C-165.32 68 -166.64 68 -168 68 C-168.33 67.34 -168.66 66.68 -169 66 C-170.64142963 64.9590934 -172.30712215 63.95495674 -174 63 C-173.67 62.01 -173.34 61.02 -173 60 C-171.00390625 59.2265625 -171.00390625 59.2265625 -168.5625 58.625 C-166.11906038 57.93830835 -166.11906038 57.93830835 -164 57 C-162.67518454 54.60470331 -162.67518454 54.60470331 -162 52 C-158.15653726 48.15653726 -154.04938561 46.71165614 -149 45 C-149 43.68 -149 42.36 -149 41 C-146.03 40.01 -143.06 39.02 -140 38 C-140 36.68 -140 35.36 -140 34 C-139.505 33.01 -139.505 33.01 -139 32 C-136.66752239 31.66073053 -134.33414529 31.32759934 -132 31 C-131.34 30.34 -130.68 29.68 -130 29 C-130.495 27.515 -130.495 27.515 -131 26 C-130.01 26 -129.02 26 -128 26 C-127.76152344 25.35546875 -127.52304688 24.7109375 -127.27734375 24.046875 C-126 22 -126 22 -123.94140625 21.390625 C-123.15636719 21.34421875 -122.37132812 21.2978125 -121.5625 21.25 C-120.78003906 21.19328125 -119.99757812 21.1365625 -119.19140625 21.078125 C-117.46184032 21.0164649 -115.73066469 21 -114 21 C-112.65599167 20.01439389 -111.32392972 19.01241685 -110 18 C-108.33607955 17.32650839 -106.66967972 16.6590841 -105 16 C-104.34 15.34 -103.68 14.68 -103 14 C-100.375 13.875 -100.375 13.875 -98 14 C-98 14.66 -98 15.32 -98 16 C-98.495 16.495 -98.495 16.495 -99 17 C-90.78239681 18.5608932 -90.78239681 18.5608932 -83.25 15.9375 C-79.7757143 13.86629122 -79.41138466 13.74281855 -75.75 14.625 C-72 16 -72 16 -69 18 C-66.59162866 18.27419251 -64.17127788 18.44915333 -61.75 18.5625 C-50.38099957 19.12181829 -50.38099957 19.12181829 -44.89453125 20.546875 C-39.44484119 21.85030603 -33.66665075 21.36110766 -28.25 20.1875 C-24.74092178 17.82562043 -23.7597027 16.16842116 -21.6875 12.5625 C-18.63297502 7.31728628 -16.11561919 5.4571243 -10.33203125 3.78125 C-7.91320136 3.11402164 -7.91320136 3.11402164 -5.94921875 1.40625 C-4 0 -4 0 0 0 Z M-127 27 C-127.33 27.66 -127.66 28.32 -128 29 C-126.35 28.67 -124.7 28.34 -123 28 C-124.32 27.67 -125.64 27.34 -127 27 Z " fill="#5EBAD9" transform="translate(228,121)"/>
<path d="M0 0 C8.03501094 -0.78774617 8.03501094 -0.78774617 12.0625 2.5 C12.701875 3.325 13.34125 4.15 14 5 C14.66 3.68 15.32 2.36 16 1 C17.45792884 0.94600264 18.91642712 0.90720823 20.375 0.875 C21.18710938 0.85179688 21.99921875 0.82859375 22.8359375 0.8046875 C25 1 25 1 27 3 C26.6875 4.875 26.6875 4.875 26 7 C25.814375 7.7425 25.62875 8.485 25.4375 9.25 C25.293125 9.8275 25.14875 10.405 25 11 C25.7425 10.236875 26.485 9.47375 27.25 8.6875 C32.94102228 3.12581913 32.94102228 3.12581913 36.76171875 2.671875 C37.72722656 2.69765625 38.69273438 2.7234375 39.6875 2.75 C40.66074219 2.76546875 41.63398437 2.7809375 42.63671875 2.796875 C45 3 45 3 46 4 C46.04080783 5.99958364 46.04254356 8.00045254 46 10 C45.01 10 44.02 10 43 10 C42.34 9.01 41.68 8.02 41 7 C37.91634129 6.7497843 37.91634129 6.7497843 35 7 C34.91857073 8.7492214 34.86061459 10.49954542 34.8125 12.25 C34.77769531 13.22453125 34.74289063 14.1990625 34.70703125 15.203125 C35.04340028 18.41432805 35.70576853 19.75389926 38 22 C38.99 22 39.98 22 41 22 C41.33 20.68 41.66 19.36 42 18 C41.01 18 40.02 18 39 18 C39.495 16.515 39.495 16.515 40 15 C41.45823212 14.9729957 42.91660675 14.95360213 44.375 14.9375 C45.18710938 14.92589844 45.99921875 14.91429688 46.8359375 14.90234375 C49 15 49 15 51 16 C50.9175 15.13375 50.835 14.2675 50.75 13.375 C51.11037151 8.50998455 53.25685096 5.59320074 56.81640625 2.33984375 C59.47943307 0.70582192 61.08890948 0.65846114 64.1875 0.75 C65.50814453 0.77320312 65.50814453 0.77320312 66.85546875 0.796875 C69 1 69 1 70 2 C70.04080783 3.99958364 70.04254356 6.00045254 70 8 C69.01 8 68.02 8 67 8 C66.01 6.515 66.01 6.515 65 5 C62.45792029 4.66656449 62.45792029 4.66656449 60 5 C58.27904777 6.72095223 58.82800239 8.97163914 58.8125 11.3125 C58.79832031 12.27800781 58.78414062 13.24351563 58.76953125 14.23828125 C59.00447086 17.05357452 59.41619494 18.6752963 61 21 C63.55519921 21.81171228 63.55519921 21.81171228 66 22 C66 20.35 66 18.7 66 17 C65.01 17 64.02 17 63 17 C63.495 15.515 63.495 15.515 64 14 C66.70879335 12.64560332 69.00933268 12.93498549 72 13 C72.495 14.98 72.495 14.98 73 17 C72.34 17 71.68 17 71 17 C71 18.65 71 20.3 71 22 C72.65 22.33 74.3 22.66 76 23 C75.2265625 23.12375 75.2265625 23.12375 74.4375 23.25 C71.73261586 23.9722269 71.73261586 23.9722269 68.625 26.0625 C64.22177764 28.65373533 60.83472019 28.33024963 55.875 27.4375 C53.13026764 27.01982334 51.58545872 27.10503352 49 28 C50.375 26.5 50.375 26.5 52 25 C52.66 25 53.32 25 54 25 C54 24.34 54 23.68 54 23 C49.58477891 24.26974972 49.58477891 24.26974972 46 27 C44.34302621 27.69040574 42.6744239 28.3530635 41 29 C38.99248185 29.98482022 36.99065541 30.98152514 35 32 C35.495 30.515 35.495 30.515 36 29 C35.0925 28.5875 34.185 28.175 33.25 27.75 C30.20334382 26.10949282 28.28873194 24.55281639 26 22 C25.34 23.98 24.68 25.96 24 28 C18.91664275 27.84595887 16.64245282 24.97931568 13.35546875 21.49609375 C12.68451172 20.75552734 12.68451172 20.75552734 12 20 C12.20625 20.94875 12.4125 21.8975 12.625 22.875 C12.74875 23.90625 12.8725 24.9375 13 26 C11 28 11 28 9.125 28.265625 C8.42375 28.26046875 7.7225 28.2553125 7 28.25 C5.948125 28.25773437 5.948125 28.25773437 4.875 28.265625 C3 28 3 28 1 26 C1 24.68 1 23.36 1 22 C1.66 22 2.32 22 3 22 C2.67 16.72 2.34 11.44 2 6 C1.34 6 0.68 6 0 6 C-1.125 2.25 -1.125 2.25 0 0 Z M25 17 C26 20 26 20 26 20 Z " fill="#343C39" transform="translate(76,112)"/>
<path d="M0 0 C7.33689048 0.61140754 14.52147202 1.84378665 19.5625 7.5625 C22 10.63414634 22 10.63414634 22 13 C22.639375 12.34 23.27875 11.68 23.9375 11 C28.06463775 8.30472637 31.19792709 8.19257181 36 9 C41.13248503 11.27013761 43.59902098 14.68905076 46.0859375 19.55859375 C47.94680101 24.52884886 47.86821238 28.94370753 45.8125 33.8125 C42.91716904 37.30686495 40.43182307 39.54303519 36.0625 40.9375 C32.1268428 41.01781953 30.25919453 40.19641371 27 38 C23.98444653 34.23055816 22.32172946 30.62605312 21 26 C20.01 26.66 19.02 27.32 18 28 C15.3125 28.125 15.3125 28.125 13 28 C13.37705078 28.79664063 13.37705078 28.79664063 13.76171875 29.609375 C16.21524664 35.28251121 16.21524664 35.28251121 15.25 38.5 C12.17942194 40.54705204 9.74176528 40.61508289 6.1015625 40.4609375 C4 40 4 40 1.875 37.6875 C1 35 1 35 2 32 C2.22635971 28.89982302 2.18515463 25.79510864 2.1875 22.6875 C2.19974609 21.84509766 2.21199219 21.00269531 2.22460938 20.13476562 C2.2358951 15.32328493 1.79653645 11.53217149 0 7 C-0.6875 3.6875 -0.6875 3.6875 -1 1 C-0.67 0.67 -0.34 0.34 0 0 Z M12 13 C13 16 13 16 13 16 Z M32 18 C32.11509661 19.41750563 32.24253658 20.83401169 32.375 22.25 C32.44460937 23.03890625 32.51421875 23.8278125 32.5859375 24.640625 C33.01507113 27.085877 33.78600638 28.84836903 35 31 C35.66 31 36.32 31 37 31 C36.74379316 29.3934324 36.46944129 27.7897517 36.1875 26.1875 C36.03667969 25.29417969 35.88585937 24.40085937 35.73046875 23.48046875 C34.94604607 20.81678744 34.11372201 19.74309678 32 18 Z " fill="#343A37" transform="translate(31,100)"/>
<path d="M0 0 C1.134375 0.020625 2.26875 0.04125 3.4375 0.0625 C3.1075 1.3825 2.7775 2.7025 2.4375 4.0625 C1.4475 4.0625 0.4575 4.0625 -0.5625 4.0625 C-2.18640025 7.6147818 -3.04136421 10.16628669 -2.5625 14.0625 C-1.27117653 16.71841616 0.32115971 19.15680469 1.9375 21.625 C2.78939225 22.93353719 3.63347397 24.24720046 4.46875 25.56640625 C5.03432617 26.42987671 5.03432617 26.42987671 5.61132812 27.31079102 C6.4375 29.0625 6.4375 29.0625 6.4375 33.0625 C4.1275 33.0625 1.8175 33.0625 -0.5625 33.0625 C-0.88863281 32.42441406 -1.21476563 31.78632813 -1.55078125 31.12890625 C-1.98777344 30.30261719 -2.42476562 29.47632813 -2.875 28.625 C-3.51888672 27.38943359 -3.51888672 27.38943359 -4.17578125 26.12890625 C-5.46270887 23.75602356 -5.46270887 23.75602356 -8.5625 23.0625 C-8.42165204 24.85456547 -8.27466299 26.64614917 -8.125 28.4375 C-8.04378906 29.43523437 -7.96257812 30.43296875 -7.87890625 31.4609375 C-7.71284374 34.04177613 -7.71284374 34.04177613 -6.5625 36.0625 C-3.7465151 36.53148963 -3.7465151 36.53148963 -0.5 36.6875 C0.60472656 36.76226562 1.70945313 36.83703125 2.84765625 36.9140625 C3.70230469 36.96304688 4.55695313 37.01203125 5.4375 37.0625 C5.7675 36.4025 6.0975 35.7425 6.4375 35.0625 C7.18 34.69125 7.9225 34.32 8.6875 33.9375 C11.46559769 32.04334248 12.33246454 30.88130608 14 28.0625 C16.71484505 23.4733192 18.60955401 21.56103072 23.875 20.125 C27.61508726 19.00953538 29.51808722 17.57643878 32.4375 15.0625 C33.4275 14.7325 34.4175 14.4025 35.4375 14.0625 C35.1075 13.4025 34.7775 12.7425 34.4375 12.0625 C35.0975 11.0725 35.7575 10.0825 36.4375 9.0625 C37.7575 9.0625 39.0775 9.0625 40.4375 9.0625 C40.2209375 10.0834375 40.2209375 10.0834375 40 11.125 C39.36804091 14.42523082 38.89436059 17.73394426 38.4375 21.0625 C37.19033203 21.46082031 37.19033203 21.46082031 35.91796875 21.8671875 C34.83128906 22.22039062 33.74460938 22.57359375 32.625 22.9375 C31.54605469 23.28554687 30.46710938 23.63359375 29.35546875 23.9921875 C26.30434198 24.98209653 26.30434198 24.98209653 23.4375 27.0625 C22.74330103 29.14133627 22.74330103 29.14133627 22.4375 31.5625 C20.01736035 45.21759691 16.10553876 53.31932184 5.25390625 62.1796875 C-3.71584587 68.17610986 -17.88359191 68.05725777 -28.3125 66.5 C-33.38472367 65.37109705 -38.03816073 63.22260721 -42.7902832 61.17456055 C-48.33110507 58.90174599 -53.48346343 58.38036166 -59.4765625 58.21875 C-62.22591661 58.0795422 -64.28744701 57.6716085 -66.875 56.8125 C-71.89104029 55.79228842 -74.94863467 57.10929701 -79.5625 59.0625 C-81.18631068 59.7320583 -82.81134408 60.39865787 -84.4375 61.0625 C-85.2625 61.40152344 -86.0875 61.74054688 -86.9375 62.08984375 C-90.59374088 63.44461158 -94.32427676 64.36373332 -98.1171875 65.25390625 C-100.77583863 66.13304488 -102.33763998 67.39066446 -104.5625 69.0625 C-106.47553887 69.79641618 -108.41683807 70.4592152 -110.375 71.0625 C-111.95861328 71.57490234 -111.95861328 71.57490234 -113.57421875 72.09765625 C-114.56035156 72.41605469 -115.54648438 72.73445313 -116.5625 73.0625 C-121.69759749 74.66997038 -121.69759749 74.66997038 -125 78.75 C-125.185625 79.513125 -125.37125 80.27625 -125.5625 81.0625 C-127.2125 80.7325 -128.8625 80.4025 -130.5625 80.0625 C-128.89583333 78.39583333 -127.22916667 76.72916667 -125.5625 75.0625 C-125.088125 74.505625 -124.61375 73.94875 -124.125 73.375 C-121.86324732 71.47512775 -119.36702813 70.96868008 -116.5625 70.0625 C-114.36955075 69.26482458 -112.18207038 68.45197118 -110 67.625 C-108.90558594 67.21378906 -107.81117187 66.80257812 -106.68359375 66.37890625 C-103.59423517 65.1716304 -103.59423517 65.1716304 -101.0859375 63.5234375 C-98.04687623 61.76398098 -95.14756772 60.99780406 -91.75 60.125 C-87.65472644 59.02242635 -84.0335135 57.96054838 -80.375 55.8125 C-75.7231489 53.23935026 -70.74001582 53.53080225 -65.5625 54.0625 C-64.9025 54.3925 -64.2425 54.7225 -63.5625 55.0625 C-61.41673363 55.08935938 -59.27087355 55.10883088 -57.125 55.125 C-50.34516605 55.35041222 -45.10972117 57.27850918 -39 60.125 C-30.84512571 63.85547308 -24.59579072 65.05829583 -15.5625 64.0625 C-14.20726878 63.99262557 -12.85177421 63.92772317 -11.49609375 63.8671875 C-2.22089459 63.29073214 3.94962528 61.02384882 10.4375 54.0625 C10.95699219 53.52625 11.47648438 52.99 12.01171875 52.4375 C17.25634216 46.13765206 19.17337649 37.09922104 19.875 29.125 C20.27734375 27.0078125 20.27734375 27.0078125 21.4375 25.0625 C25.76380547 22.29320486 31.16947193 19.0625 36.4375 19.0625 C36.4375 18.4025 36.4375 17.7425 36.4375 17.0625 C33.09469278 18.43895003 29.96284175 19.74216967 26.875 21.625 C24.4375 23.0625 24.4375 23.0625 21.5 23.625 C17.24578017 25.62187869 16.0561711 28.57358 13.9296875 32.65234375 C11.97222962 35.81399692 10.02073409 37.51347527 6.5 38.734375 C-2.23321049 40.1237494 -10.1759142 38.52139426 -18.5625 36.0625 C-18.8925 34.4125 -19.2225 32.7625 -19.5625 31.0625 C-17.9125 30.7325 -16.2625 30.4025 -14.5625 30.0625 C-14.70192681 26.49971911 -14.85017078 22.9373574 -15 19.375 C-15.03931641 18.36759766 -15.07863281 17.36019531 -15.11914062 16.32226562 C-15.16103516 15.34580078 -15.20292969 14.36933594 -15.24609375 13.36328125 C-15.28275146 12.46778564 -15.31940918 11.57229004 -15.35717773 10.6496582 C-15.56311751 8.05471912 -16.00017822 5.60195316 -16.5625 3.0625 C-13.85370665 1.70810332 -11.55316732 1.99748549 -8.5625 2.0625 C-8.8925 5.6925 -9.2225 9.3225 -9.5625 13.0625 C-8.5725 13.0625 -7.5825 13.0625 -6.5625 13.0625 C-6.42972656 12.20785156 -6.29695313 11.35320312 -6.16015625 10.47265625 C-5.98355469 9.36792969 -5.80695313 8.26320313 -5.625 7.125 C-5.45097656 6.02285156 -5.27695313 4.92070313 -5.09765625 3.78515625 C-4.30025365 -0.27170224 -4.32387813 0.07585751 0 0 Z " fill="#393D41" transform="translate(191.5625,103.9375)"/>
<path d="M0 0 C0 0.66 0 1.32 0 2 C-2.12282669 3.00460531 -4.24833021 4.00355602 -6.375 5 C-7.55835938 5.556875 -8.74171875 6.11375 -9.9609375 6.6875 C-13 8 -13 8 -15 8 C-15.17015625 8.53367188 -15.3403125 9.06734375 -15.515625 9.6171875 C-16.31894736 12.08697645 -17.15908119 14.5427697 -18 17 C-18.26683594 17.83917969 -18.53367187 18.67835938 -18.80859375 19.54296875 C-21.10459976 26.12485265 -24.32273659 30.85601211 -30 35 C-36.8066073 38.16586386 -44.83891114 37.43221777 -52 36 C-51.01171875 34.51171875 -51.01171875 34.51171875 -49 33 C-46.18872957 32.78285759 -43.6116655 32.71715724 -40.8125 32.8125 C-39.68811523 32.83280273 -39.68811523 32.83280273 -38.54101562 32.85351562 C-36.69370233 32.88881461 -34.84675934 32.94262083 -33 33 C-33 32.34 -33 31.68 -33 31 C-34.485 30.505 -34.485 30.505 -36 30 C-35.67 29.34 -35.34 28.68 -35 28 C-33.68 28 -32.36 28 -31 28 C-31 27.34 -31 26.68 -31 26 C-32.31097656 26.03480469 -32.31097656 26.03480469 -33.6484375 26.0703125 C-60.75652399 26.46812509 -60.75652399 26.46812509 -71.296875 20.88671875 C-73.46265016 19.7591248 -75.58888281 19.3111119 -78 19 C-76.24966666 22.50066667 -72.52225984 23.60788978 -69 25 C-65.89857281 25.76651242 -62.79157818 26.21809209 -59.625 26.625 C-51.24930684 27.75069316 -51.24930684 27.75069316 -49 30 C-52.08325358 30.0582253 -55.16636505 30.09367134 -58.25 30.125 C-59.55904297 30.15013672 -59.55904297 30.15013672 -60.89453125 30.17578125 C-61.73886719 30.18222656 -62.58320313 30.18867188 -63.453125 30.1953125 C-64.22817383 30.20578613 -65.00322266 30.21625977 -65.80175781 30.22705078 C-68.27447175 29.97165052 -69.83631223 29.18781231 -72 28 C-73.57295285 27.63886287 -75.15821823 27.32864186 -76.75 27.0625 C-81.44075661 26.19255256 -85.58642082 24.79812485 -90 23 C-90 23.99 -90 24.98 -90 26 C-90.66 26 -91.32 26 -92 26 C-92 25.34 -92 24.68 -92 24 C-92.66 24 -93.32 24 -94 24 C-93.505 25.485 -93.505 25.485 -93 27 C-94.32 27 -95.64 27 -97 27 C-97 27.66 -97 28.32 -97 29 C-96.01 29.33 -95.02 29.66 -94 30 C-101.26153846 31.35384615 -101.26153846 31.35384615 -105 29.5625 C-105.66 29.046875 -106.32 28.53125 -107 28 C-107.33 28.66 -107.66 29.32 -108 30 C-110.06640625 30.4140625 -110.06640625 30.4140625 -112.5625 30.625 C-113.38878906 30.69976562 -114.21507813 30.77453125 -115.06640625 30.8515625 C-116.02353516 30.92503906 -116.02353516 30.92503906 -117 31 C-117 30.34 -117 29.68 -117 29 C-118.65 29.33 -120.3 29.66 -122 30 C-121.34 29.01 -120.68 28.02 -120 27 C-119.01 27 -118.02 27 -117 27 C-117 26.34 -117 25.68 -117 25 C-119.97 25.33 -122.94 25.66 -126 26 C-126 25.34 -126 24.68 -126 24 C-124.88625 23.87625 -123.7725 23.7525 -122.625 23.625 C-118.96896323 23.3534187 -118.96896323 23.3534187 -117 21 C-116.01 21 -115.02 21 -114 21 C-112.65599167 20.01439389 -111.32392972 19.01241685 -110 18 C-108.33607955 17.32650839 -106.66967972 16.6590841 -105 16 C-104.34 15.34 -103.68 14.68 -103 14 C-100.375 13.875 -100.375 13.875 -98 14 C-98 14.66 -98 15.32 -98 16 C-98.33 16.33 -98.66 16.66 -99 17 C-90.78239681 18.5608932 -90.78239681 18.5608932 -83.25 15.9375 C-79.7757143 13.86629122 -79.41138466 13.74281855 -75.75 14.625 C-72 16 -72 16 -69 18 C-66.59162866 18.27419251 -64.17127788 18.44915333 -61.75 18.5625 C-50.38099957 19.12181829 -50.38099957 19.12181829 -44.89453125 20.546875 C-39.44484119 21.85030603 -33.66665075 21.36110766 -28.25 20.1875 C-24.74092178 17.82562043 -23.7597027 16.16842116 -21.6875 12.5625 C-18.63297502 7.31728628 -16.11561919 5.4571243 -10.33203125 3.78125 C-7.91320136 3.11402164 -7.91320136 3.11402164 -5.94921875 1.40625 C-4 0 -4 0 0 0 Z " fill="#A9D8EA" transform="translate(228,121)"/>
<path d="M0 0 C0 0.99 0 1.98 0 3 C-2.31 3 -4.62 3 -7 3 C-7 3.66 -7 4.32 -7 5 C-2.545 4.505 -2.545 4.505 2 4 C2 4.66 2 5.32 2 6 C1.01 6.66 0.02 7.32 -1 8 C-0.01 8 0.98 8 2 8 C2 8.66 2 9.32 2 10 C6.455 9.505 6.455 9.505 11 9 C10.505 7.515 10.505 7.515 10 6 C11.98 6.66 13.96 7.32 16 8 C15.34 8.99 14.68 9.98 14 11 C13.34 11 12.68 11 12 11 C12 11.66 12 12.32 12 13 C10.35 13.33 8.7 13.66 7 14 C14.59 14.33 22.18 14.66 30 15 C30 15.66 30 16.32 30 17 C31.2375 17.061875 32.475 17.12375 33.75 17.1875 C39.9699425 17.84223079 45.3648994 20.4160537 51 23 C50.67 23.66 50.34 24.32 50 25 C41.61141304 22.31793478 41.61141304 22.31793478 37.875 20.375 C33.03412758 18.16728621 27.45877856 18.42770849 22.23046875 18.2109375 C19 18 19 18 17 17 C9.8480571 16.13084027 5.01936299 17.10473553 -1.1796875 20.6328125 C-5.78878913 22.86714155 -10.71438823 23.85569994 -15.6796875 25.0078125 C-18.88561888 25.96582023 -20.44213352 26.95582513 -23 29 C-24.74669462 29.72756652 -26.52075477 30.39176965 -28.3125 31 C-29.7665625 31.51240234 -29.7665625 31.51240234 -31.25 32.03515625 C-32.1575 32.35355469 -33.065 32.67195313 -34 33 C-39.18923541 34.8771666 -42.92231001 37.32013342 -47 41 C-46.34 42.98 -45.68 44.96 -45 47 C-46.32 47 -47.64 47 -49 47 C-49.33 46.34 -49.66 45.68 -50 45 C-51.64142963 43.9590934 -53.30712215 42.95495674 -55 42 C-54.67 41.01 -54.34 40.02 -54 39 C-52.00390625 38.2265625 -52.00390625 38.2265625 -49.5625 37.625 C-47.11906038 36.93830835 -47.11906038 36.93830835 -45 36 C-43.67518454 33.60470331 -43.67518454 33.60470331 -43 31 C-39.15653726 27.15653726 -35.04938561 25.71165614 -30 24 C-30 22.68 -30 21.36 -30 20 C-27.03 19.01 -24.06 18.02 -21 17 C-21 15.68 -21 14.36 -21 13 C-20.67 12.34 -20.34 11.68 -20 11 C-17.66752239 10.66073053 -15.33414529 10.32759934 -13 10 C-12.34 9.34 -11.68 8.68 -11 8 C-11.495 6.515 -11.495 6.515 -12 5 C-11.01 5 -10.02 5 -9 5 C-8.7215625 4.0409375 -8.7215625 4.0409375 -8.4375 3.0625 C-7 1 -7 1 -3.375 0.25 C-1.704375 0.12625 -1.704375 0.12625 0 0 Z M-8 6 C-8.33 6.66 -8.66 7.32 -9 8 C-7.35 7.67 -5.7 7.34 -4 7 C-5.32 6.67 -6.64 6.34 -8 6 Z " fill="#88CDE2" transform="translate(109,142)"/>
<path d="M0 0 C2.50063365 0.46308031 4.02373057 1.01675099 6.125 2.5 C9.68939778 4.3596858 12.67981143 4.46694721 16.64453125 4.75390625 C19.37130462 5.03879302 21.49373701 5.9162106 24 7 C25.2375 7.165 26.475 7.33 27.75 7.5 C28.8225 7.665 29.895 7.83 31 8 C31.495 8.99 31.495 8.99 32 10 C24.64825194 10.55253221 19.488417 9.51064108 13 6 C13 6.66 13 7.32 13 8 C13.721875 8.103125 14.44375 8.20625 15.1875 8.3125 C18 9 18 9 20.27563477 10.51806641 C23.55055449 12.29947717 25.6906586 12.38710905 29.40234375 12.3984375 C30.62244141 12.40230469 31.84253906 12.40617188 33.09960938 12.41015625 C34.36611328 12.39855469 35.63261719 12.38695312 36.9375 12.375 C38.20013672 12.38660156 39.46277344 12.39820313 40.76367188 12.41015625 C42.59575195 12.40435547 42.59575195 12.40435547 44.46484375 12.3984375 C45.574646 12.39505371 46.68444824 12.39166992 47.82788086 12.38818359 C51.42340787 11.94818606 53.82259141 10.68654157 57 9 C57.99 9 58.98 9 60 9 C60 9.66 60 10.32 60 11 C59.01 11 58.02 11 57 11 C56.9175 11.763125 56.835 12.52625 56.75 13.3125 C55.80624382 16.69429299 55.00861721 17.24740745 52 19 C49.48932387 19.53965108 47.16315549 19.9249531 44.625 20.1875 C43.9247168 20.26500488 43.22443359 20.34250977 42.50292969 20.42236328 C27.8186904 21.92784523 27.8186904 21.92784523 22 21 C20.63163299 19.70264605 19.30061254 18.36527015 18 17 C14.69942314 15.48173858 14.69942314 15.48173858 11.0625 14.3125 C9.85722656 13.89613281 8.65195313 13.47976562 7.41015625 13.05078125 C4.60185661 12.18545181 1.89129804 11.4992564 -1 11 C-1 10.34 -1 9.68 -1 9 C-9.25 9 -17.5 9 -26 9 C-23.64730203 6.64730203 -23.19190176 6.75299537 -20.0078125 6.7265625 C-19.22019531 6.7059375 -18.43257813 6.6853125 -17.62109375 6.6640625 C-15.96494622 6.6381447 -14.308661 6.61984146 -12.65234375 6.609375 C-7.68420209 6.5328677 -7.68420209 6.5328677 -3.5546875 3.9609375 C-2.78511719 2.99027344 -2.78511719 2.99027344 -2 2 C-1.34 2 -0.68 2 0 2 C0 1.34 0 0.68 0 0 Z " fill="#B9EAF5" transform="translate(140,148)"/>
<path d="M0 0 C5.06299058 5.19622718 5.28599578 8.99294029 5.21875 16.01171875 C4.87528398 20.70370987 3.41359307 23.53766235 0.1875 26.875 C-2.80777732 28.41542833 -4.670062 28.47570543 -8 28 C-11.4942557 25.77638274 -13.48655659 23.83007388 -15 20 C-15.7044258 14.81840635 -16.26047763 9.34696295 -13.7265625 4.62890625 C-9.38141306 -0.4686959 -6.75016039 -1.62934906 0 0 Z M-7 6 C-7.3152595 11.98993047 -6.68219822 15.63560356 -4 21 C-3.67 21 -3.34 21 -3 21 C-2.6847405 15.01006953 -3.31780178 11.36439644 -6 6 C-6.33 6 -6.66 6 -7 6 Z " fill="#02A157" transform="translate(167,110)"/>
<path d="M0 0 C1.134375 0.020625 2.26875 0.04125 3.4375 0.0625 C3.1075 1.3825 2.7775 2.7025 2.4375 4.0625 C1.4475 4.0625 0.4575 4.0625 -0.5625 4.0625 C-2.18640025 7.6147818 -3.04136421 10.16628669 -2.5625 14.0625 C-1.27117653 16.71841616 0.32115971 19.15680469 1.9375 21.625 C2.78939225 22.93353719 3.63347397 24.24720046 4.46875 25.56640625 C4.84580078 26.14205322 5.22285156 26.7177002 5.61132812 27.31079102 C6.4375 29.0625 6.4375 29.0625 6.4375 33.0625 C4.1275 33.0625 1.8175 33.0625 -0.5625 33.0625 C-0.88863281 32.42441406 -1.21476563 31.78632813 -1.55078125 31.12890625 C-1.98777344 30.30261719 -2.42476562 29.47632813 -2.875 28.625 C-3.51888672 27.38943359 -3.51888672 27.38943359 -4.17578125 26.12890625 C-5.46270887 23.75602356 -5.46270887 23.75602356 -8.5625 23.0625 C-8.47871094 23.77277344 -8.39492187 24.48304688 -8.30859375 25.21484375 C-8.20675781 26.13394531 -8.10492188 27.05304688 -8 28 C-7.89558594 28.91652344 -7.79117188 29.83304688 -7.68359375 30.77734375 C-7.64363281 31.53144531 -7.60367188 32.28554687 -7.5625 33.0625 C-8.5625 34.0625 -8.5625 34.0625 -12.125 34.125 C-13.259375 34.104375 -14.39375 34.08375 -15.5625 34.0625 C-15.55726318 33.30106689 -15.55202637 32.53963379 -15.54663086 31.75512695 C-15.52580475 28.29509308 -15.51282187 24.83507241 -15.5 21.375 C-15.49162109 20.17681641 -15.48324219 18.97863281 -15.47460938 17.74414062 C-15.47138672 16.58720703 -15.46816406 15.43027344 -15.46484375 14.23828125 C-15.45960693 13.17520752 -15.45437012 12.11213379 -15.44897461 11.0168457 C-15.55533156 8.2490491 -15.93355212 5.75457103 -16.5625 3.0625 C-13.85370665 1.70810332 -11.55316732 1.99748549 -8.5625 2.0625 C-8.8925 5.6925 -9.2225 9.3225 -9.5625 13.0625 C-8.5725 13.0625 -7.5825 13.0625 -6.5625 13.0625 C-6.42972656 12.20785156 -6.29695312 11.35320312 -6.16015625 10.47265625 C-5.98355469 9.36792969 -5.80695313 8.26320313 -5.625 7.125 C-5.45097656 6.02285156 -5.27695313 4.92070313 -5.09765625 3.78515625 C-4.30025365 -0.27170224 -4.32387813 0.07585751 0 0 Z " fill="#02A357" transform="translate(191.5625,103.9375)"/>
<path d="M0 0 C4.91848141 0.91700501 7.41626983 2.99363028 10.6875 6.6875 C13.58721682 11.08384486 14.34210314 14.45067485 13.6875 19.6875 C11.66083762 23.39140021 10.20705484 25.34113011 6.6875 27.6875 C3.3125 28.125 3.3125 28.125 -0.3125 27.6875 C-4.05581849 24.77603006 -5.85016764 22.13891701 -7.3125 17.6875 C-7.92974062 12.29023317 -8.12791484 7.38356287 -5.75 2.4375 C-3.3125 0.6875 -3.3125 0.6875 0 0 Z M0.6875 7.6875 C0.80259661 9.10500563 0.93003658 10.52151169 1.0625 11.9375 C1.13210937 12.72640625 1.20171875 13.5153125 1.2734375 14.328125 C1.70257113 16.773377 2.47350638 18.53586903 3.6875 20.6875 C4.3475 20.6875 5.0075 20.6875 5.6875 20.6875 C5.43129316 19.0809324 5.15694129 17.4772517 4.875 15.875 C4.72417969 14.98167969 4.57335937 14.08835937 4.41796875 13.16796875 C3.63354607 10.50428744 2.80122201 9.43059678 0.6875 7.6875 Z " fill="#03A156" transform="translate(62.3125,110.3125)"/>
<path d="M0 0 C7.29813632 1.09616277 13.00573277 2.30707042 17.875 8.3125 C19.32666609 11.780369 19.4065857 14.27296441 19 18 C17.9375 20.4375 17.9375 20.4375 16 22 C12.3125 22.25 12.3125 22.25 9 22 C9.57663337 27.26233754 9.57663337 27.26233754 10.625 32.4375 C10.74875 32.953125 10.8725 33.46875 11 34 C10 35 10 35 6.4375 35.0625 C5.303125 35.041875 4.16875 35.02125 3 35 C2.4375 33.0625 2.4375 33.0625 2 31 C2.33 30.67 2.66 30.34 3 30 C3.51286253 20.27069621 4.02608676 9.03414589 0 0 Z M10 10 C11 13 11 13 11 13 Z " fill="#02A257" transform="translate(33,103)"/>
<path d="M0 0 C0 0.66 0 1.32 0 2 C-2.12282669 3.00460531 -4.24833021 4.00355602 -6.375 5 C-7.55835938 5.556875 -8.74171875 6.11375 -9.9609375 6.6875 C-13 8 -13 8 -15 8 C-15.17015625 8.53367188 -15.3403125 9.06734375 -15.515625 9.6171875 C-16.31894736 12.08697645 -17.15908119 14.5427697 -18 17 C-18.26683594 17.83917969 -18.53367188 18.67835938 -18.80859375 19.54296875 C-21.10459976 26.12485265 -24.32273659 30.85601211 -30 35 C-36.8066073 38.16586386 -44.83891114 37.43221777 -52 36 C-51.01171875 34.51171875 -51.01171875 34.51171875 -49 33 C-46.18872957 32.78285759 -43.6116655 32.71715724 -40.8125 32.8125 C-39.68811523 32.83280273 -39.68811523 32.83280273 -38.54101562 32.85351562 C-36.69370233 32.88881461 -34.84675934 32.94262083 -33 33 C-33 32.34 -33 31.68 -33 31 C-33.99 30.67 -34.98 30.34 -36 30 C-35.67 29.34 -35.34 28.68 -35 28 C-33.68 28 -32.36 28 -31 28 C-31 27.34 -31 26.68 -31 26 C-32.04800781 26.02320313 -33.09601563 26.04640625 -34.17578125 26.0703125 C-35.55468037 26.08907303 -36.9335872 26.10727293 -38.3125 26.125 C-39.34793945 26.15013672 -39.34793945 26.15013672 -40.40429688 26.17578125 C-44.17135396 26.21217794 -45.78431704 26.14378864 -49 24 C-47.68 24 -46.36 24 -45 24 C-45 23.34 -45 22.68 -45 22 C-43.71416016 21.94392578 -43.71416016 21.94392578 -42.40234375 21.88671875 C-33.22568159 21.55890531 -33.22568159 21.55890531 -25 18 C-23.84657347 16.21844239 -22.74758793 14.40112826 -21.6875 12.5625 C-18.63297502 7.31728628 -16.11561919 5.4571243 -10.33203125 3.78125 C-7.91320136 3.11402164 -7.91320136 3.11402164 -5.94921875 1.40625 C-4 0 -4 0 0 0 Z " fill="#95CCDE" transform="translate(228,121)"/>
<path d="M0 0 C2.7421875 -0.2734375 2.7421875 -0.2734375 6 0 C8.1953125 1.8984375 8.1953125 1.8984375 10.125 4.375 C12.55964839 7.45497688 14.324756 9.51356798 18 11 C17.54177532 7.53058454 17.10868317 4.32604951 16 1 C17.98 1 19.96 1 22 1 C21.67 8.59 21.34 16.18 21 24 C17.06879105 22.03439552 15.61501878 20.65677154 12.875 17.375 C11.62553199 15.88035336 10.34221888 14.41194453 9 13 C8.34 13 7.68 13 7 13 C6.87530901 18.57830016 6.87530901 18.57830016 8 24 C6.02 24 4.04 24 2 24 C2 21.87877677 2.02597606 19.75747859 2.0703125 17.63671875 C2.08835937 16.33347656 2.10640625 15.03023437 2.125 13.6875 C2.14820312 12.39199219 2.17140625 11.09648438 2.1953125 9.76171875 C2.00603168 6.11617016 1.33040099 3.37838048 0 0 Z " fill="#02A357" transform="translate(78,114)"/>
<path d="M0 0 C0.89847656 -0.00257812 1.79695312 -0.00515625 2.72265625 -0.0078125 C4.9375 0.125 4.9375 0.125 5.9375 1.125 C5.97830783 3.12458364 5.98004356 5.12545254 5.9375 7.125 C4.9475 7.125 3.9575 7.125 2.9375 7.125 C2.2775 6.135 1.6175 5.145 0.9375 4.125 C-1.60457971 3.79156449 -1.60457971 3.79156449 -4.0625 4.125 C-5.78345223 5.84595223 -5.23449761 8.09663914 -5.25 10.4375 C-5.26417969 11.40300781 -5.27835938 12.36851563 -5.29296875 13.36328125 C-5.05802914 16.17857452 -4.64630506 17.8002963 -3.0625 20.125 C-0.50730079 20.93671228 -0.50730079 20.93671228 1.9375 21.125 C1.9375 19.475 1.9375 17.825 1.9375 16.125 C0.9475 16.125 -0.0425 16.125 -1.0625 16.125 C-0.7325 15.135 -0.4025 14.145 -0.0625 13.125 C2.64629335 11.77060332 4.94683268 12.05998549 7.9375 12.125 C8.2675 13.445 8.5975 14.765 8.9375 16.125 C8.2775 16.125 7.6175 16.125 6.9375 16.125 C6.855 17.053125 6.7725 17.98125 6.6875 18.9375 C5.9375 22.125 5.9375 22.125 4.3125 24 C0.95025048 25.59264451 -1.3829957 25.57686895 -5.0625 25.125 C-8.60258122 22.9222828 -10.49008563 20.94569105 -12.0625 17.125 C-12.70345668 13.0363711 -13.01824033 8.89791608 -11.01171875 5.17578125 C-7.51833581 0.91983094 -5.31880081 -0.0153059 0 0 Z " fill="#039F56" transform="translate(140.0625,112.875)"/>
<path d="M0 0 C1.32 0 2.64 0 4 0 C3.855625 0.680625 3.71125 1.36125 3.5625 2.0625 C2.93054091 5.36273082 2.45686059 8.67144426 2 12 C1.16855469 12.26554687 0.33710938 12.53109375 -0.51953125 12.8046875 C-2.14955078 13.33449219 -2.14955078 13.33449219 -3.8125 13.875 C-4.89144531 14.22304687 -5.97039062 14.57109375 -7.08203125 14.9296875 C-10.13315802 15.91959653 -10.13315802 15.91959653 -13 18 C-13.72998223 20.14531742 -13.72998223 20.14531742 -14.0625 22.625 C-14.84615741 27.15572522 -15.84622528 31.54972609 -17 36 C-17.99 35.505 -17.99 35.505 -19 35 C-18.74587965 32.30632433 -18.39876394 29.67381718 -18 27 C-17.86271484 25.62908203 -17.86271484 25.62908203 -17.72265625 24.23046875 C-17.19562871 21.04652554 -16.62527482 18.80263926 -15 16 C-10.69604253 13.0991438 -5.32809133 10 0 10 C0 9.34 0 8.68 0 8 C-3.34280722 9.37645003 -6.47465825 10.67966967 -9.5625 12.5625 C-12 14 -12 14 -14.9375 14.5625 C-19.19171983 16.55937869 -20.3813289 19.51108 -22.5078125 23.58984375 C-24.46527038 26.75149692 -26.41676591 28.45097527 -29.9375 29.671875 C-38.67071049 31.0612494 -46.6134142 29.45889426 -55 27 C-55.33 25.35 -55.66 23.7 -56 22 C-54.68 21.67 -53.36 21.34 -52 21 C-52 22.32 -52 23.64 -52 25 C-49.36 25 -46.72 25 -44 25 C-43.67 25.66 -43.34 26.32 -43 27 C-40.1840151 27.46898963 -40.1840151 27.46898963 -36.9375 27.625 C-35.83277344 27.69976562 -34.72804687 27.77453125 -33.58984375 27.8515625 C-32.73519531 27.90054688 -31.88054687 27.94953125 -31 28 C-30.67 27.34 -30.34 26.68 -30 26 C-29.2575 25.62875 -28.515 25.2575 -27.75 24.875 C-24.97190231 22.98084248 -24.10503546 21.81880608 -22.4375 19 C-19.72265495 14.4108192 -17.82794599 12.49853072 -12.5625 11.0625 C-8.82241274 9.94703538 -6.91941278 8.51393878 -4 6 C-3.01 5.67 -2.02 5.34 -1 5 C-1.495 4.01 -1.495 4.01 -2 3 C-1.34 2.01 -0.68 1.02 0 0 Z " fill="#3B4045" transform="translate(228,113)"/>
<path d="M0 0 C1 1 1 1 1.0625 4.0625 C1.041875 5.031875 1.02125 6.00125 1 7 C0.01 7 -0.98 7 -2 7 C-2.66 6.01 -3.32 5.02 -4 4 C-7.08365871 3.7497843 -7.08365871 3.7497843 -10 4 C-10.08142927 5.7492214 -10.13938541 7.49954542 -10.1875 9.25 C-10.22230469 10.22453125 -10.25710937 11.1990625 -10.29296875 12.203125 C-9.95659972 15.41432805 -9.29423147 16.75389926 -7 19 C-6.01 19 -5.02 19 -4 19 C-3.67 17.68 -3.34 16.36 -3 15 C-3.99 15 -4.98 15 -6 15 C-5.67 14.01 -5.34 13.02 -5 12 C-2.03 12 0.94 12 4 12 C4 12.99 4 13.98 4 15 C3.34 15 2.68 15 2 15 C1.9175 15.763125 1.835 16.52625 1.75 17.3125 C1 20 1 20 -0.5625 21.8125 C-4.04028356 23.50680481 -7.25935375 23.80898897 -11 23 C-14.86710786 19.95568105 -16.65027699 17.61185543 -17.30859375 12.6953125 C-17.54323756 8.01665705 -17.54634348 5.738302 -14.6875 1.875 C-10.35168609 -1.0850268 -5.01914106 -0.59853471 0 0 Z " fill="#049E56" transform="translate(121,115)"/>
<path d="M0 0 C0 0.99 0 1.98 0 3 C-2.31 3 -4.62 3 -7 3 C-7 3.66 -7 4.32 -7 5 C-2.545 4.505 -2.545 4.505 2 4 C2 4.66 2 5.32 2 6 C1.03578125 6.38671875 0.0715625 6.7734375 -0.921875 7.171875 C-2.1981325 7.6973928 -3.47416231 8.22346381 -4.75 8.75 C-5.38421875 9.00265625 -6.0184375 9.2553125 -6.671875 9.515625 C-10.53235233 11.12415722 -13.36232149 12.72288428 -16 16 C-16 16.66 -16 17.32 -16 18 C-19.3 19.32 -22.6 20.64 -26 22 C-25.01 22.99 -24.02 23.98 -23 25 C-24.56381917 26.56381917 -26.40150942 26.38067233 -28.5625 26.6875 C-35.54941696 28.02499553 -39.80712398 31.70270131 -44.625 36.75 C-47.30902247 39.29275813 -49.49955262 39.96577691 -53 41 C-53.33 41.66 -53.66 42.32 -54 43 C-54 41.68 -54 40.36 -54 39 C-53.37351563 38.84144531 -52.74703125 38.68289062 -52.1015625 38.51953125 C-49.63439463 37.81518206 -47.32783954 37.08231654 -45 36 C-43.67518454 33.60470331 -43.67518454 33.60470331 -43 31 C-39.15653726 27.15653726 -35.04938561 25.71165614 -30 24 C-30 22.68 -30 21.36 -30 20 C-27.03 19.01 -24.06 18.02 -21 17 C-21 15.68 -21 14.36 -21 13 C-20.67 12.34 -20.34 11.68 -20 11 C-17.66752239 10.66073053 -15.33414529 10.32759934 -13 10 C-12.34 9.34 -11.68 8.68 -11 8 C-11.495 6.515 -11.495 6.515 -12 5 C-11.01 5 -10.02 5 -9 5 C-8.7215625 4.0409375 -8.7215625 4.0409375 -8.4375 3.0625 C-7 1 -7 1 -3.375 0.25 C-1.704375 0.12625 -1.704375 0.12625 0 0 Z M-8 6 C-8.33 6.66 -8.66 7.32 -9 8 C-7.35 7.67 -5.7 7.34 -4 7 C-5.32 6.67 -6.64 6.34 -8 6 Z " fill="#3D4144" transform="translate(109,142)"/>
<path d="M0 0 C0.33 0 0.66 0 1 0 C1.37313894 9.95534684 -1.96927873 18.63736644 -8.21875 26.29296875 C-10.04414231 28.04230304 -11.68676341 29.01078698 -14 30 C-14 29.01 -14 28.02 -14 27 C-13.01 27 -12.02 27 -11 27 C-11 26.34 -11 25.68 -11 25 C-11.48799072 25.28222412 -11.97598145 25.56444824 -12.47875977 25.85522461 C-19.56321321 29.51127558 -26.07681319 29.63339214 -33.9375 29.5625 C-35.14857422 29.58634766 -36.35964844 29.61019531 -37.60742188 29.63476562 C-45.59027967 29.62179942 -51.23716219 28.28979431 -58 24 C-58 23.34 -58 22.68 -58 22 C-55.79726826 22.48949594 -53.8710745 23.05893737 -51.8125 24 C-48.48963992 25.18146136 -45.39069382 25.46996027 -41.890625 25.75390625 C-40 26 -40 26 -39 27 C-31.34099844 27.64653909 -25.09040671 26.80780106 -18 24 C-16.96875 23.7525 -15.9375 23.505 -14.875 23.25 C-9.98833193 21.12536171 -6.40885492 18.17727036 -4.20410156 13.20507812 C-2.56251839 8.87400284 -1.24530092 4.45898073 0 0 Z " fill="#81C9E0" transform="translate(211,132)"/>
<path d="M0 0 C3.84785326 0.82722578 6.52533629 1.68355752 9.8359375 3.890625 C12.24430884 4.16481751 14.66465962 4.33977833 17.0859375 4.453125 C31.26976907 5.15092394 31.26976907 5.15092394 35.8359375 7.890625 C35.1759375 7.890625 34.5159375 7.890625 33.8359375 7.890625 C33.8359375 8.550625 33.8359375 9.210625 33.8359375 9.890625 C24.51007341 11.4742623 16.3384398 11.05075181 7.78515625 6.8125 C5.51132544 5.73710106 3.32674247 5.21201919 0.8359375 4.890625 C2.21285712 7.64446423 4.20313792 8.40545601 6.8359375 9.890625 C4.8359375 10.890625 4.8359375 10.890625 2.671875 10.33203125 C1.85976562 10.04199219 1.04765625 9.75195312 0.2109375 9.453125 C-0.60632813 9.16566406 -1.42359375 8.87820312 -2.265625 8.58203125 C-2.89210937 8.35386719 -3.51859375 8.12570313 -4.1640625 7.890625 C-3.1740625 7.230625 -2.1840625 6.570625 -1.1640625 5.890625 C-3.6390625 4.900625 -3.6390625 4.900625 -6.1640625 3.890625 C-4.40310291 1.28746735 -3.2723663 -0.16539035 0 0 Z " fill="#91D1E4" transform="translate(149.1640625,135.109375)"/>
<path d="M0 0 C6.625 0.75 6.625 0.75 10 3 C11.99901931 3.25793798 13.9988713 3.51272806 16.00390625 3.71875 C18.54325078 4.07654414 20.67572678 4.9374751 23 6 C23.99 6.33 24.98 6.66 26 7 C26 7.66 26 8.32 26 9 C20.17949184 10.74615245 13.87285661 10.28388725 8.3515625 7.81640625 C6.18332813 6.60917165 4.07598407 5.35891711 2 4 C2 4.66 2 5.32 2 6 C1.195625 6.268125 0.39125 6.53625 -0.4375 6.8125 C-1.283125 7.204375 -2.12875 7.59625 -3 8 C-3.33 8.99 -3.66 9.98 -4 11 C-8.29 11 -12.58 11 -17 11 C-17 10.34 -17 9.68 -17 9 C-13.49223216 7.39644899 -10.85645121 6.77963136 -7 7 C-7 6.01 -7 5.02 -7 4 C-6.01 3.67 -5.02 3.34 -4 3 C-4 2.34 -4 1.68 -4 1 C-3.34 1 -2.68 1 -2 1 C-2 1.66 -2 2.32 -2 3 C-1.34 3 -0.68 3 0 3 C0 2.01 0 1.02 0 0 Z " fill="#5BB1D4" transform="translate(138,144)"/>
<path d="M0 0 C0 0.66 0 1.32 0 2 C-1.73391951 3.60634015 -3.538091 5.1375287 -5.375 6.625 C-6.37273437 7.44226563 -7.37046875 8.25953125 -8.3984375 9.1015625 C-11 11 -11 11 -13 11 C-13 11.66 -13 12.32 -13 13 C-21.26677316 16.78434505 -21.26677316 16.78434505 -25.1875 17.9375 C-28.87739778 19.33146138 -31.08284041 21.36066513 -34 24 C-33.34 25.98 -32.68 27.96 -32 30 C-33.32 30 -34.64 30 -36 30 C-36.33 29.34 -36.66 28.68 -37 28 C-37.99 27.67 -38.98 27.34 -40 27 C-40 26.01 -40 25.02 -40 24 C-39.11248047 23.56300781 -39.11248047 23.56300781 -38.20703125 23.1171875 C-32.87571738 20.35151408 -29.86046544 17.65235578 -26 13 C-21.25029163 9.79977006 -16.65750787 8.47145899 -11 8 C-12.32 7.01 -13.64 6.02 -15 5 C-13.06532058 4.16013916 -11.12714871 3.32831973 -9.1875 2.5 C-8.10855469 2.0359375 -7.02960938 1.571875 -5.91796875 1.09375 C-3 0 -3 0 0 0 Z " fill="#82BBCF" transform="translate(96,159)"/>
<path d="M0 0 C4.07296876 -0.49873087 7.56775103 -0.88737164 11.15625 1.3359375 C12.86161784 2.82463976 14.46275038 4.33917726 16 6 C16.66 5.01 17.32 4.02 18 3 C20.4294516 6.6441774 20.16179575 8.71241272 20 13 C15.90335525 12.006874 14.11640816 10.11002147 11.5625 6.9375 C9.10711426 3.95980632 8.3861588 3.11233711 4.5625 2 C3.716875 2 2.87125 2 2 2 C2.73476562 3.24523437 2.73476562 3.24523437 3.484375 4.515625 C5.236307 8.54326249 5.33639199 11.37856535 5.25 15.75 C5.23453125 17.06484375 5.2190625 18.3796875 5.203125 19.734375 C5 23 5 23 4 25 C5.98 25.33 7.96 25.66 10 26 C9.67 23.03 9.34 20.06 9 17 C11.00773956 19.00773956 11.99392854 20.36873617 13 23 C12.5 26.5 12.5 26.5 11 28 C5.26388889 28.27314815 5.26388889 28.27314815 3 28 C2.34 27.34 1.68 26.68 1 26 C1 24.68 1 23.36 1 22 C1.66 22 2.32 22 3 22 C2.67 16.72 2.34 11.44 2 6 C1.34 6 0.68 6 0 6 C-1.125 2.25 -1.125 2.25 0 0 Z " fill="#333B37" transform="translate(76,112)"/>
<path d="M0 0 C0 0.66 0 1.32 0 2 C-2.12282669 3.00460531 -4.24833021 4.00355602 -6.375 5 C-7.55835938 5.556875 -8.74171875 6.11375 -9.9609375 6.6875 C-13 8 -13 8 -15 8 C-15.17015625 8.53367188 -15.3403125 9.06734375 -15.515625 9.6171875 C-16.31894736 12.08697645 -17.15908119 14.5427697 -18 17 C-18.26683594 17.83917969 -18.53367188 18.67835938 -18.80859375 19.54296875 C-21.10459976 26.12485265 -24.32273659 30.85601211 -30 35 C-36.8066073 38.16586386 -44.83891114 37.43221777 -52 36 C-50.92578125 34.50390625 -50.92578125 34.50390625 -49 33 C-45.85546875 32.77734375 -45.85546875 32.77734375 -42.1875 32.9375 C-37.27415327 33.14288105 -33.54821905 32.96697404 -29 31 C-24.16037374 26.04782429 -21.07371558 21.31617154 -20.5625 14.375 C-20.29230293 11.39282497 -20.11848164 10.18009209 -18.4375 7.625 C-15.68345285 5.78896857 -13.01353429 4.7790986 -9.890625 3.7265625 C-7.83250464 3.03439246 -7.83250464 3.03439246 -5.75 1.3125 C-4 0 -4 0 0 0 Z " fill="#9EEDF7" transform="translate(228,121)"/>
<path d="M0 0 C0 0.99 0 1.98 0 3 C8.81137269 5.33009342 17.45450596 7.40513844 26.5234375 8.5078125 C29 9 29 9 31 11 C27.91674642 11.0582253 24.83363495 11.09367134 21.75 11.125 C20.44095703 11.15013672 20.44095703 11.15013672 19.10546875 11.17578125 C18.26113281 11.18222656 17.41679687 11.18867188 16.546875 11.1953125 C15.77182617 11.20578613 14.99677734 11.21625977 14.19824219 11.22705078 C11.72768934 10.97187373 10.16176717 10.18610234 8 9 C6.52867531 8.70736083 5.0478169 8.46039902 3.5625 8.25 C-3.12301693 7.03081754 -8.95809488 4.01148249 -15 1 C-15 0.67 -15 0.34 -15 0 C-9.62374766 -0.84888195 -5.34629602 -1.0024305 0 0 Z " fill="#ABDDED" transform="translate(148,140)"/>
<path d="M0 0 C3.625 0.25 3.625 0.25 5.5625 1.75 C5.913125 2.245 6.26375 2.74 6.625 3.25 C6.625 2.59 6.625 1.93 6.625 1.25 C7.285 1.25 7.945 1.25 8.625 1.25 C8.625 1.91 8.625 2.57 8.625 3.25 C9.553125 3.353125 10.48125 3.45625 11.4375 3.5625 C14.65754358 4.2570192 15.65079865 4.72740939 17.625 7.25 C17.295 7.91 16.965 8.57 16.625 9.25 C16.109375 8.92 15.59375 8.59 15.0625 8.25 C11.83731316 6.92684642 9.09111634 7.18919094 5.625 7.25 C3.94942621 6.96479595 2.27682755 6.65044304 0.625 6.25 C0.625 5.59 0.625 4.93 0.625 4.25 C-7.625 4.25 -15.875 4.25 -24.375 4.25 C-22.02170871 1.89670871 -21.47611761 1.97980522 -18.27734375 1.87109375 C-17.47619141 1.83693359 -16.67503906 1.80277344 -15.84960938 1.76757812 C-15.01236328 1.74115234 -14.17511719 1.71472656 -13.3125 1.6875 C-8.52948158 1.51523803 -4.44936542 0.32958262 0 0 Z " fill="#D5F2F9" transform="translate(138.375,152.75)"/>
<path d="M0 0 C1.32 0 2.64 0 4 0 C3.855625 0.680625 3.71125 1.36125 3.5625 2.0625 C2.93054091 5.36273082 2.45686059 8.67144426 2 12 C0.75283203 12.39832031 0.75283203 12.39832031 -0.51953125 12.8046875 C-1.60621094 13.15789062 -2.69289062 13.51109375 -3.8125 13.875 C-5.43091797 14.39707031 -5.43091797 14.39707031 -7.08203125 14.9296875 C-10.13315802 15.91959653 -10.13315802 15.91959653 -13 18 C-13.72998223 20.14531742 -13.72998223 20.14531742 -14.0625 22.625 C-14.84615741 27.15572522 -15.84622528 31.54972609 -17 36 C-17.66 35.67 -18.32 35.34 -19 35 C-18.74587965 32.30632433 -18.39876394 29.67381718 -18 27 C-17.90847656 26.08605469 -17.81695312 25.17210937 -17.72265625 24.23046875 C-17.19562871 21.04652554 -16.62527482 18.80263926 -15 16 C-10.69604253 13.0991438 -5.32809133 10 0 10 C0 9.34 0 8.68 0 8 C-4.54170996 9.90884692 -4.54170996 9.90884692 -9 12 C-7.86500606 8.70851757 -7.00716624 8.0040131 -3.875 6.25 C-2.92625 5.8375 -1.9775 5.425 -1 5 C-1.33 4.34 -1.66 3.68 -2 3 C-1.34 2.01 -0.68 1.02 0 0 Z " fill="#3C4246" transform="translate(228,113)"/>
<path d="M0 0 C-4.01539291 3.79188736 -6.98833338 4.66673935 -12.4375 5.25 C-13.47898193 5.36166504 -13.47898193 5.36166504 -14.54150391 5.47558594 C-21.29590277 6.14136134 -28.23803893 6.66639616 -35 6 C-35.66 5.34 -36.32 4.68 -37 4 C-32.4470235 2.10292646 -28.84064457 0.70234123 -23.890625 1.33984375 C-22.75947266 1.4800293 -22.75947266 1.4800293 -21.60546875 1.62304688 C-20.82816406 1.72681641 -20.05085938 1.83058594 -19.25 1.9375 C-18.45722656 2.03740234 -17.66445312 2.13730469 -16.84765625 2.24023438 C-14.89759629 2.48692871 -12.94867414 2.7425878 -11 3 C-11 2.34 -11 1.68 -11 1 C-3.57142857 -1.42857143 -3.57142857 -1.42857143 0 0 Z " fill="#3B9ABB" transform="translate(197,163)"/>
<path d="M0 0 C3.54922341 -0.45796431 5.63072393 0.25033556 8.6875 1.875 C14.72390851 4.75140942 21.08016322 4.95492997 27.64453125 5.5625 C32.5228969 6.01777197 37.22156986 6.92099964 42 8 C42 8.33 42 8.66 42 9 C37.52012577 8.91844944 33.04154627 8.80566299 28.5625 8.6875 C27.30244141 8.66494141 26.04238281 8.64238281 24.74414062 8.61914062 C15.76328361 8.36120478 7.42335001 7.50764678 0 2 C0 1.34 0 0.68 0 0 Z " fill="#4DABCC" transform="translate(150,140)"/>
<path d="M0 0 C-0.33 0.66 -0.66 1.32 -1 2 C1.475 2.99 1.475 2.99 4 4 C3.67 5.32 3.34 6.64 3 8 C2.34 8 1.68 8 1 8 C1 7.34 1 6.68 1 6 C0.34 6 -0.32 6 -1 6 C-0.67 6.99 -0.34 7.98 0 9 C-1.32 9 -2.64 9 -4 9 C-4 9.66 -4 10.32 -4 11 C-3.01 11.33 -2.02 11.66 -1 12 C-5.72463088 11.53680089 -9.17057052 10.90108294 -13 8 C-13 7.34 -13 6.68 -13 6 C-10.03 5.34 -7.06 4.68 -4 4 C-5.65 3.67 -7.3 3.34 -9 3 C-8.67 2.01 -8.34 1.02 -8 0 C-5.13822943 -1.43088528 -3.06624227 -0.59991697 0 0 Z " fill="#87C7DF" transform="translate(135,139)"/>
<path d="M0 0 C2.5087452 0.28044916 3.65728519 0.57583753 5.265625 2.56640625 C7.78030158 7.66561154 8.48996745 11.31637759 8 17 C7.67 17.66 7.34 18.32 7 19 C5.68 19 4.36 19 3 19 C-0.63258569 12.87001166 -1.84876152 8.13794523 -1 1 C-0.67 0.67 -0.34 0.34 0 0 Z M1 3 C1.11509661 4.41750563 1.24253658 5.83401169 1.375 7.25 C1.44460937 8.03890625 1.51421875 8.8278125 1.5859375 9.640625 C2.01507113 12.085877 2.78600638 13.84836903 4 16 C4.66 16 5.32 16 6 16 C5.74379316 14.3934324 5.46944129 12.7897517 5.1875 11.1875 C5.03667969 10.29417969 4.88585937 9.40085937 4.73046875 8.48046875 C3.94604607 5.81678744 3.11372201 4.74309678 1 3 Z " fill="#304139" transform="translate(62,115)"/>
<path d="M0 0 C-3 2 -3 2 -6.1875 2.875 C-13.86996039 5.14195552 -17.90898593 7.73413653 -23 14 C-25.28933043 15.70807504 -27.37526496 16.78484489 -30 18 C-30.99 17.67 -31.98 17.34 -33 17 C-32.45730469 16.60167969 -31.91460937 16.20335937 -31.35546875 15.79296875 C-30.64003906 15.26316406 -29.92460938 14.73335937 -29.1875 14.1875 C-28.47980469 13.66542969 -27.77210937 13.14335937 -27.04296875 12.60546875 C-24.99125475 11.06893533 -24.99125475 11.06893533 -23.36328125 9.30078125 C-22 8 -22 8 -20 8 C-20 7.34 -20 6.68 -20 6 C-21.65 5.67 -23.3 5.34 -25 5 C-24.360625 4.896875 -23.72125 4.79375 -23.0625 4.6875 C-22.0415625 4.3471875 -22.0415625 4.3471875 -21 4 C-20.67 3.01 -20.34 2.02 -20 1 C-19.01 1 -18.02 1 -17 1 C-16.67 1.66 -16.34 2.32 -16 3 C-15.01 2.34 -14.02 1.68 -13 1 C-8.63440185 0.0078186 -4.46554097 -0.08931082 0 0 Z " fill="#C0E5EF" transform="translate(116,153)"/>
<path d="M0 0 C1.9375 0.0625 1.9375 0.0625 4 1 C6.87505207 4.8472919 7.34410973 7.56200498 7.1875 12.3125 C7.16042969 13.38113281 7.13335937 14.44976562 7.10546875 15.55078125 C7.07066406 16.35902344 7.03585938 17.16726562 7 18 C5.68 18.33 4.36 18.66 3 19 C-1.26548154 12.94576814 -2.41270018 9.42860316 -2 2 C-1.34 1.34 -0.68 0.68 0 0 Z M1 2 C0.6847405 7.98993047 1.31780178 11.63560356 4 17 C4.33 17 4.66 17 5 17 C5.3152595 11.01006953 4.68219822 7.36439644 2 2 C1.67 2 1.34 2 1 2 Z " fill="#343735" transform="translate(159,114)"/>
<path d="M0 0 C-0.66 0 -1.32 0 -2 0 C-2 0.66 -2 1.32 -2 2 C-0.35 1.67 1.3 1.34 3 1 C2.67 1.66 2.34 2.32 2 3 C1.01257813 2.98839844 0.02515625 2.97679687 -0.9921875 2.96484375 C-2.27351563 2.95582031 -3.55484375 2.94679687 -4.875 2.9375 C-6.78925781 2.92009766 -6.78925781 2.92009766 -8.7421875 2.90234375 C-11.88664652 2.76823431 -11.88664652 2.76823431 -14 4 C-11.36 4.66 -8.72 5.32 -6 6 C-6.33 6.66 -6.66 7.32 -7 8 C-10.96 8 -14.92 8 -19 8 C-19.66 6.02 -20.32 4.04 -21 2 C-18.94921875 1.77213542 -16.8984375 1.54427083 -14.84765625 1.31640625 C-12.98859771 1.18113386 -12.98859771 1.18113386 -12 0 C-10.54998009 -0.25996373 -9.08877907 -0.45919978 -7.625 -0.625 C-6.43777344 -0.76808594 -6.43777344 -0.76808594 -5.2265625 -0.9140625 C-3 -1 -3 -1 0 0 Z " fill="#47ACD0" transform="translate(191,152)"/>
<path d="M0 0 C1.98 0.66 3.96 1.32 6 2 C5.01 3.485 5.01 3.485 4 5 C3.34 5 2.68 5 2 5 C2 5.66 2 6.32 2 7 C1.31164062 6.82855469 0.62328125 6.65710938 -0.0859375 6.48046875 C-3.38938789 5.93579798 -6.28897926 6.05558806 -9.625 6.3125 C-11.31496094 6.43044922 -11.31496094 6.43044922 -13.0390625 6.55078125 C-16.17881963 6.81326669 -16.17881963 6.81326669 -19 9 C-19.99 8.67 -20.98 8.34 -22 8 C-21.34 8 -20.68 8 -20 8 C-20 7.34 -20 6.68 -20 6 C-20.66 5.67 -21.32 5.34 -22 5 C-12.58997722 1.55580866 -12.58997722 1.55580866 -8 2 C-8 2.66 -8 3.32 -8 4 C-3.545 3.505 -3.545 3.505 1 3 C0.67 2.01 0.34 1.02 0 0 Z " fill="#9BD3E6" transform="translate(119,148)"/>
<path d="M0 0 C7.60054547 -0.3304585 15.03634324 0.83470147 22 4 C22.99 4.33 23.98 4.66 25 5 C25 5.66 25 6.32 25 7 C18.9968402 8.80094794 12.75306105 8.31472712 7.12890625 5.62890625 C4.66801509 4.17331531 2.28859754 2.71401348 0 1 C0 0.67 0 0.34 0 0 Z " fill="#5DACD1" transform="translate(139,146)"/>
<path d="M0 0 C-0.99 0 -1.98 0 -3 0 C-3 0.66 -3 1.32 -3 2 C-3.55429688 2.19335938 -4.10859375 2.38671875 -4.6796875 2.5859375 C-5.40414062 2.84632813 -6.12859375 3.10671875 -6.875 3.375 C-7.59429687 3.63023437 -8.31359375 3.88546875 -9.0546875 4.1484375 C-11.18157994 4.93877783 -11.18157994 4.93877783 -13 7 C-14.87541498 7.70292488 -16.77580651 8.3402457 -18.6875 8.9375 C-27.32518644 11.08056544 -27.32518644 11.08056544 -33.4375 16.6875 C-33.623125 17.450625 -33.80875 18.21375 -34 19 C-35.65 18.67 -37.3 18.34 -39 18 C-37.33333333 16.33333333 -35.66666667 14.66666667 -34 13 C-33.2884375 12.1646875 -33.2884375 12.1646875 -32.5625 11.3125 C-30.30074732 9.41262775 -27.80452813 8.90618008 -25 8 C-22.80705075 7.20232458 -20.61957038 6.38947118 -18.4375 5.5625 C-16.79587891 4.94568359 -16.79587891 4.94568359 -15.12109375 4.31640625 C-12.21434118 3.09040423 -9.68226525 1.6460397 -7 0 C-3.86650268 -1.04449911 -3.01031744 -0.93423645 0 0 Z " fill="#474F54" transform="translate(100,166)"/>
<path d="M0 0 C0 0.33 0 0.66 0 1 C-4.27343092 1.36629408 -6.48812804 0.40814077 -10 -2 C-10.33 -1.34 -10.66 -0.68 -11 0 C-13.06640625 0.4140625 -13.06640625 0.4140625 -15.5625 0.625 C-16.38878906 0.69976562 -17.21507813 0.77453125 -18.06640625 0.8515625 C-19.02353516 0.92503906 -19.02353516 0.92503906 -20 1 C-20 0.34 -20 -0.32 -20 -1 C-21.65 -0.67 -23.3 -0.34 -25 0 C-18.75543986 -9.3668402 -7.73147216 -4.27828499 0 0 Z " fill="#B0DBEA" transform="translate(131,151)"/>
<path d="M0 0 C2.52113092 -0.05447822 5.0410585 -0.09389852 7.5625 -0.125 C8.26697266 -0.14175781 8.97144531 -0.15851563 9.69726562 -0.17578125 C14.51891822 -0.22022044 18.42297438 0.47231996 23 2 C22.01 2.495 22.01 2.495 21 3 C21 3.66 21 4.32 21 5 C13.25 6.125 13.25 6.125 11 5 C11 4.34 11 3.68 11 3 C9.9275 3.04125 8.855 3.0825 7.75 3.125 C4.34252515 3.0114175 2.79260369 2.78726636 0 1 C0 0.67 0 0.34 0 0 Z " fill="#ADD6E5" transform="translate(162,140)"/>
<path d="M0 0 C0.66 0.33 1.32 0.66 2 1 C1.13458709 8.35600978 -2.91243845 12.12772509 -8.3125 16.75 C-15.66567792 22.51986484 -20.72156443 23.34447572 -29.83984375 22.2890625 C-30.55269531 22.19367188 -31.26554688 22.09828125 -32 22 C-32 21.67 -32 21.34 -32 21 C-30.44152344 20.92265625 -30.44152344 20.92265625 -28.8515625 20.84375 C-17.98757476 20.05741167 -11.64698509 17.52686416 -4.3203125 9.05859375 C-2.09418587 6.14702135 -0.7502185 3.5577372 0 0 Z " fill="#35454D" transform="translate(208,147)"/>
<path d="M0 0 C2.82115305 1.97881825 5.35731953 1.59092596 8.6484375 1.15625 C11.81510417 -0.67708333 11.81510417 -0.67708333 13.6484375 -3.84375 C13.6484375 -3.18375 13.6484375 -2.52375 13.6484375 -1.84375 C16.1234375 -1.34875 16.1234375 -1.34875 18.6484375 -0.84375 C17.875 -0.72 17.875 -0.72 17.0859375 -0.59375 C14.38105336 0.1284769 14.38105336 0.1284769 11.2734375 2.21875 C6.87021514 4.80998533 3.48315769 4.48649963 -1.4765625 3.59375 C-4.22129486 3.17607334 -5.76610378 3.26128352 -8.3515625 4.15625 C-6.9765625 2.65625 -6.9765625 2.65625 -5.3515625 1.15625 C-4.6915625 1.15625 -4.0315625 1.15625 -3.3515625 1.15625 C-3.3515625 0.49625 -3.3515625 -0.16375 -3.3515625 -0.84375 C-6.83827084 0.2656572 -10.12640487 1.41962666 -13.3515625 3.15625 C-9.11352886 -2.37673836 -9.11352886 -2.37673836 -6.4140625 -4.03125 C-3.44623539 -3.76144754 -2.1216721 -1.93858365 0 0 Z " fill="#3E6970" transform="translate(133.3515625,135.84375)"/>
<path d="M0 0 C-2.81666694 1.87777796 -4.73186359 2.61302692 -7.9375 3.5 C-11.15540265 4.39305292 -14.11299556 5.29492355 -17 7 C-17.33 7.66 -17.66 8.32 -18 9 C-16.68 9.33 -15.36 9.66 -14 10 C-17.63 10.66 -21.26 11.32 -25 12 C-22.0706778 6.1413556 -17.9491155 3.54962093 -12 1 C-7.95332678 0.07263739 -4.14356435 -0.09865629 0 0 Z " fill="#5FBBD9" transform="translate(119,154)"/>
<path d="M0 0 C3.3 0 6.6 0 10 0 C10 0.66 10 1.32 10 2 C8.02 2.99 8.02 2.99 6 4 C6.66 4.33 7.32 4.66 8 5 C7.67 5.66 7.34 6.32 7 7 C5.35 7 3.7 7 2 7 C2 6.34 2 5.68 2 5 C1.38253906 4.95101562 0.76507813 4.90203125 0.12890625 4.8515625 C-5.73478159 4.33391578 -11.27872775 3.38417877 -17 2 C-17 1.67 -17 1.34 -17 1 C-11.39 1 -5.78 1 0 1 C0 0.67 0 0.34 0 0 Z " fill="#73BED8" transform="translate(187,147)"/>
<path d="M0 0 C7.75381294 -0.36988154 15.04405369 0.11949914 22.6875 1.375 C23.87255127 1.56412964 23.87255127 1.56412964 25.08154297 1.75708008 C30.74546014 2.74546014 30.74546014 2.74546014 33 5 C29.91674642 5.0582253 26.83363495 5.09367134 23.75 5.125 C22.44095703 5.15013672 22.44095703 5.15013672 21.10546875 5.17578125 C20.26113281 5.18222656 19.41679687 5.18867188 18.546875 5.1953125 C17.77182617 5.20578613 16.99677734 5.21625977 16.19824219 5.22705078 C13.72299993 4.97138938 12.16764813 4.18645465 10 3 C8.26186612 2.57336714 6.51011335 2.19923141 4.75 1.875 C3.85796875 1.70742187 2.9659375 1.53984375 2.046875 1.3671875 C1.03367188 1.18542969 1.03367188 1.18542969 0 1 C0 0.67 0 0.34 0 0 Z " fill="#82CCE3" transform="translate(146,146)"/>
<path d="M0 0 C1.32 0.66 2.64 1.32 4 2 C4.33 1.34 4.66 0.68 5 0 C8.87302138 1.14430177 12.00263439 2.23320098 15 5 C15 5.66 15 6.32 15 7 C12.69 7.33 10.38 7.66 8 8 C7.67 7.34 7.34 6.68 7 6 C4.65961814 4.86897474 4.65961814 4.86897474 1.9375 3.875 C1.01839844 3.52179688 0.09929687 3.16859375 -0.84765625 2.8046875 C-1.55792969 2.53914062 -2.26820313 2.27359375 -3 2 C-2.01 1.34 -1.02 0.68 0 0 Z " fill="#B2E8F4" transform="translate(151,159)"/>
<path d="M0 0 C13.04634722 -0.36295866 22.09407324 1.72190726 34 7 C33.67 7.66 33.34 8.32 33 9 C24.61141304 6.31793478 24.61141304 6.31793478 20.875 4.375 C16.04326101 2.15997476 10.45181927 2.4786871 5.23046875 2.30859375 C2 2 2 2 0 0 Z " fill="#52A1BC" transform="translate(126,158)"/>
<path d="M0 0 C0.99 0 1.98 0 3 0 C3 1.32 3 2.64 3 4 C5.64 4 8.28 4 11 4 C11.33 4.66 11.66 5.32 12 6 C14.12576782 6.46651207 14.12576782 6.46651207 16.5625 6.625 C17.38878906 6.69976562 18.21507812 6.77453125 19.06640625 6.8515625 C19.70449219 6.90054688 20.34257812 6.94953125 21 7 C21 7.33 21 7.66 21 8 C13.30993638 9.409845 7.4461845 8.23007556 0 6 C-0.38218767 4.34385343 -0.71395102 2.67542976 -1 1 C-0.67 0.67 -0.34 0.34 0 0 Z " fill="#3F464B" transform="translate(173,134)"/>
<path d="M0 0 C0.66 0.33 1.32 0.66 2 1 C-0.28940813 4.14793618 -3.11735241 4.84177943 -6.81640625 5.65625 C-12.29472825 6.51866921 -17.56852728 6.08629454 -23 5 C-21.92578125 3.50390625 -21.92578125 3.50390625 -20 2 C-16.85546875 1.77734375 -16.85546875 1.77734375 -13.1875 1.9375 C-8.20181225 2.14590495 -4.69072999 1.65031522 0 0 Z " fill="#B6E5F1" transform="translate(199,152)"/>
<path d="M0 0 C1.32 0 2.64 0 4 0 C3.855625 0.680625 3.71125 1.36125 3.5625 2.0625 C2.93054091 5.36273082 2.45686059 8.67144426 2 12 C0.68 11.34 -0.64 10.68 -2 10 C-1.34 10 -0.68 10 0 10 C0 9.34 0 8.68 0 8 C-4.54170996 9.90884692 -4.54170996 9.90884692 -9 12 C-7.86500606 8.70851757 -7.00716624 8.0040131 -3.875 6.25 C-2.92625 5.8375 -1.9775 5.425 -1 5 C-1.33 4.34 -1.66 3.68 -2 3 C-1.34 2.01 -0.68 1.02 0 0 Z " fill="#495157" transform="translate(228,113)"/>
<path d="M0 0 C4 1 4 1 6 4 C6.32727273 9.34545455 6.32727273 9.34545455 5 12 C3.35 11.67 1.7 11.34 0 11 C0 7.37 0 3.74 0 0 Z M2 4 C3 7 3 7 3 7 Z " fill="#304239" transform="translate(41,109)"/>
<path d="M0 0 C0.66 0.33 1.32 0.66 2 1 C1.01 2.485 1.01 2.485 0 4 C0.99 4.33 1.98 4.66 3 5 C0.03 6.32 -2.94 7.64 -6 9 C-6.33 8.34 -6.66 7.68 -7 7 C-11.455 7.495 -11.455 7.495 -16 8 C-16 7.34 -16 6.68 -16 6 C-14.88625 5.87625 -13.7725 5.7525 -12.625 5.625 C-8.96896323 5.3534187 -8.96896323 5.3534187 -7 3 C-6.01 3 -5.02 3 -4 3 C-1.82967524 1.56009377 -1.82967524 1.56009377 0 0 Z " fill="#70B2CA" transform="translate(118,139)"/>
<path d="M0 0 C1.49080078 0.02707031 1.49080078 0.02707031 3.01171875 0.0546875 C3.77097656 0.07789063 4.53023437 0.10109375 5.3125 0.125 C2.32813571 2.11457619 0.98895551 2.47858286 -2.4375 3 C-5.83011412 3.61371457 -8.35750321 4.31110279 -11.25 6.1875 C-15.44535516 8.55215473 -18.94838577 8.91007418 -23.6875 9.125 C-20.65913689 6.61210295 -17.84455294 5.31247221 -14.125 4.0625 C-1.96388147 -0.04620898 -1.96388147 -0.04620898 0 0 Z " fill="#39484F" transform="translate(120.6875,157.875)"/>
<path d="M0 0 C0.66 0 1.32 0 2 0 C3.32719886 6.96779403 3.08825381 13.92988911 3 21 C2.01 20.67 1.02 20.34 0 20 C0 19.34 0 18.68 0 18 C-0.66 18 -1.32 18 -2 18 C-1.67 15.03 -1.34 12.06 -1 9 C-0.34 9 0.32 9 1 9 C0.67 6.03 0.34 3.06 0 0 Z " fill="#363535" transform="translate(174,113)"/>
<path d="M0 0 C3.48330216 0.64505596 6.09432866 1.98217268 9 4 C9 4.66 9 5.32 9 6 C7.68 6 6.36 6 5 6 C5 6.66 5 7.32 5 8 C4.01 7.67 3.02 7.34 2 7 C2 6.34 2 5.68 2 5 C-0.31 5 -2.62 5 -5 5 C-3.625 3.5 -3.625 3.5 -2 2 C-1.34 2 -0.68 2 0 2 C0 1.34 0 0.68 0 0 Z " fill="#76D5EA" transform="translate(140,148)"/>
<path d="M0 0 C5.38459962 0.94607919 10.76691437 1.91285219 16.125 3 C16.84945312 3.144375 17.57390625 3.28875 18.3203125 3.4375 C20 4 20 4 21 6 C13.64825194 6.55253221 8.488417 5.51064108 2 2 C1.67 2.66 1.34 3.32 1 4 C0.34 3.67 -0.32 3.34 -1 3 C-0.67 2.01 -0.34 1.02 0 0 Z " fill="#BEE5F2" transform="translate(151,152)"/>
<path d="M0 0 C0.66 0 1.32 0 2 0 C1.34 1.65 0.68 3.3 0 5 C0.99 5 1.98 5 3 5 C3 6.65 3 8.3 3 10 C0.6875 10.3125 0.6875 10.3125 -2 10 C-3.81883009 7.6167054 -5 6.04181663 -5 3 C-4.360625 2.690625 -3.72125 2.38125 -3.0625 2.0625 C-1.06389179 1.1654837 -1.06389179 1.1654837 0 0 Z " fill="#354341" transform="translate(139,124)"/>
<path d="M0 0 C0 0.33 0 0.66 0 1 C-8.25 1 -16.5 1 -25 1 C-21.94628262 -2.05371738 -18.29706713 -1.54953331 -14.1875 -1.75 C-13.37990234 -1.80542969 -12.57230469 -1.86085937 -11.74023438 -1.91796875 C-7.31794033 -2.15701167 -4.02841357 -2.12451832 0 0 Z " fill="#BCE7F2" transform="translate(139,156)"/>
<path d="M0 0 C0.66 0.66 1.32 1.32 2 2 C1.74742272 5.78865917 -0.24099145 7.57541673 -3 10 C-6.01868434 11.50934217 -8.67297229 11.17510672 -12 11 C-12.99 10.34 -13.98 9.68 -15 9 C-14.67 8.34 -14.34 7.68 -14 7 C-13.34 7.33 -12.68 7.66 -12 8 C-9.12693772 8.50095023 -9.12693772 8.50095023 -6 8 C-2.89835231 5.44975635 -1.27433584 3.82300753 0 0 Z " fill="#334742" transform="translate(171,129)"/>
<path d="M0 0 C1.98 0 3.96 0 6 0 C5.67 7.59 5.34 15.18 5 23 C4.67 23 4.34 23 4 23 C3.96261719 21.98679688 3.92523438 20.97359375 3.88671875 19.9296875 C3.82101612 18.57809061 3.75457029 17.22652971 3.6875 15.875 C3.66494141 15.20984375 3.64238281 14.5446875 3.61914062 13.859375 C3.36871415 9.21510213 2.23583268 6.04008372 0 2 C0 1.34 0 0.68 0 0 Z " fill="#079854" transform="translate(94,115)"/>
<path d="M0 0 C0.90105469 0.01804688 1.80210937 0.03609375 2.73046875 0.0546875 C3.41753906 0.07789063 4.10460937 0.10109375 4.8125 0.125 C4.8125 1.445 4.8125 2.765 4.8125 4.125 C0.5225 4.125 -3.7675 4.125 -8.1875 4.125 C-8.1875 3.465 -8.1875 2.805 -8.1875 2.125 C-4.87379 -0.08414 -3.8428979 -0.09981553 0 0 Z " fill="#728E97" transform="translate(129.1875,150.875)"/>
<path d="M0 0 C6.625 -0.25 6.625 -0.25 10 2 C11.65549531 2.38499891 13.3222433 2.72793135 15 3 C14.01 4.32 13.02 5.64 12 7 C7.69235185 5.43358249 3.93828536 3.31663844 0 1 C0 0.67 0 0.34 0 0 Z " fill="#3D97C2" transform="translate(139,146)"/>
<path d="M0 0 C0.33 0 0.66 0 1 0 C1.33 1.65 1.66 3.3 2 5 C2.33 5 2.66 5 3 5 C3.66 7.97 4.32 10.94 5 14 C3.02 14 1.04 14 -1 14 C-1 11.06406867 -0.77500573 8.23443584 -0.5 5.3125 C-0.4071875 4.31863281 -0.314375 3.32476562 -0.21875 2.30078125 C-0.11046875 1.16189453 -0.11046875 1.16189453 0 0 Z " fill="#069954" transform="translate(81,124)"/>
<path d="M0 0 C0.89203125 0.11085937 1.7840625 0.22171875 2.703125 0.3359375 C3.37859375 0.43132812 4.0540625 0.52671875 4.75 0.625 C4.42 1.615 4.09 2.605 3.75 3.625 C-0.87 3.625 -5.49 3.625 -10.25 3.625 C-8.07478822 -0.72542356 -4.37714824 -0.57594056 0 0 Z " fill="#61C0DB" transform="translate(170.25,164.375)"/>
<path d="M0 0 C-1.38673058 2.77346117 -3.13033646 3.29925713 -5.875 4.6875 C-7.20144531 5.37392578 -7.20144531 5.37392578 -8.5546875 6.07421875 C-11 7 -11 7 -14 6 C-13.34 6 -12.68 6 -12 6 C-12 5.34 -12 4.68 -12 4 C-12.66 3.67 -13.32 3.34 -14 3 C-9.03006806 0.56574762 -5.65394631 -0.34615998 0 0 Z " fill="#55A8C9" transform="translate(111,150)"/>
<path d="M0 0 C0.33 0 0.66 0 1 0 C1.21196588 4.6561838 0.51535218 8.37250673 -0.875 12.8125 C-1.22304687 13.95332031 -1.57109375 15.09414062 -1.9296875 16.26953125 C-3 19 -3 19 -5 20 C-6.29646556 16.4161398 -5.7012466 14.55901171 -4.1875 11.125 C-2.61825686 7.45438283 -1.20347379 3.81100034 0 0 Z " fill="#54A9C6" transform="translate(211,132)"/>
<path d="M0 0 C4.95 0.33 9.9 0.66 15 1 C15 1.66 15 2.32 15 3 C8.73 3 2.46 3 -4 3 C-2.68 2.67 -1.36 2.34 0 2 C0 1.34 0 0.68 0 0 Z " fill="#D6F2F9" transform="translate(183,143)"/>
<path d="M0 0 C1.9375 0.0625 1.9375 0.0625 4 1 C5.8125 3.3125 5.8125 3.3125 7 6 C6.6875 8.3125 6.6875 8.3125 6 10 C4 9 4 9 2.875 5.9375 C2.58625 4.968125 2.2975 3.99875 2 3 C1.01 3 0.02 3 -1 3 C-1 4.98 -1 6.96 -1 9 C-1.33 9 -1.66 9 -2 9 C-2.125 5.625 -2.125 5.625 -2 2 C-1.34 1.34 -0.68 0.68 0 0 Z " fill="#2C493C" transform="translate(159,114)"/>
<path d="M0 0 C2.20273174 0.48949594 4.1289255 1.05893737 6.1875 2 C9.51729005 3.18392535 12.59889951 3.42376818 16.109375 3.65625 C16.73328125 3.7696875 17.3571875 3.883125 18 4 C18.33 4.66 18.66 5.32 19 6 C11.42228293 6.50146657 6.54216759 5.94998798 0 2 C0 1.34 0 0.68 0 0 Z " fill="#65BEDB" transform="translate(153,154)"/>
<path d="M0 0 C0 0.66 0 1.32 0 2 C-2.12282669 3.00460531 -4.24833021 4.00355602 -6.375 5 C-8.15003906 5.8353125 -8.15003906 5.8353125 -9.9609375 6.6875 C-13 8 -13 8 -15 8 C-15.33 8.66 -15.66 9.32 -16 10 C-16 9.34 -16 8.68 -16 8 C-16.66 7.67 -17.32 7.34 -18 7 C-17.32453125 6.74605469 -16.6490625 6.49210937 -15.953125 6.23046875 C-15.06109375 5.88628906 -14.1690625 5.54210937 -13.25 5.1875 C-12.36828125 4.85105469 -11.4865625 4.51460938 -10.578125 4.16796875 C-7.96899761 3.10994004 -7.96899761 3.10994004 -5.921875 1.36328125 C-4 0 -4 0 0 0 Z " fill="#9EBEC9" transform="translate(228,121)"/>
<path d="M0 0 C0 0.99 0 1.98 0 3 C-2.31 3 -4.62 3 -7 3 C-7 3.66 -7 4.32 -7 5 C-6.01 5.33 -5.02 5.66 -4 6 C-6.31 6.66 -8.62 7.32 -11 8 C-11.33 7.01 -11.66 6.02 -12 5 C-11.01 5 -10.02 5 -9 5 C-8.814375 4.360625 -8.62875 3.72125 -8.4375 3.0625 C-7 1 -7 1 -3.375 0.25 C-1.704375 0.12625 -1.704375 0.12625 0 0 Z " fill="#4F5A61" transform="translate(109,142)"/>
<path d="M0 0 C0 0.66 0 1.32 0 2 C-1.43570266 2.81567174 -2.87363434 3.62742093 -4.3125 4.4375 C-5.51326172 5.11619141 -5.51326172 5.11619141 -6.73828125 5.80859375 C-9 7 -9 7 -12 8 C-9.82021749 2.45146271 -6.05820197 -0.69236594 0 0 Z " fill="#B4DFEC" transform="translate(130,135)"/>
<path d="M0 0 C0.33 0.99 0.66 1.98 1 3 C-2.47007921 6.87832382 -5.04015559 8.53459142 -10 10 C-10.33 10.66 -10.66 11.32 -11 12 C-11 10.68 -11 9.36 -11 8 C-10.37351563 7.84144531 -9.74703125 7.68289062 -9.1015625 7.51953125 C-3.84375314 6.2094023 -3.84375314 6.2094023 -0.4375 2.3125 C-0.293125 1.549375 -0.14875 0.78625 0 0 Z " fill="#3B4146" transform="translate(66,173)"/>
<path d="M0 0 C5.28 0.33 10.56 0.66 16 1 C16 1.33 16 1.66 16 2 C11.17247654 3.24581251 4.59543291 4.29771645 0 2 C0 1.34 0 0.68 0 0 Z " fill="#D2F5FB" transform="translate(171,161)"/>
<path d="M0 0 C6.0018137 -0.21824777 11.19233704 0.4943096 17 2 C17 2.33 17 2.66 17 3 C10.90218999 3.22084624 5.78357065 3.01167675 0 1 C0 0.67 0 0.34 0 0 Z " fill="#9DDDED" transform="translate(162,148)"/>
<path d="M0 0 C1.98 0 3.96 0 6 0 C6 0.99 6 1.98 6 3 C6.99 3 7.98 3 9 3 C9 3.66 9 4.32 9 5 C9.99 5.33 10.98 5.66 12 6 C7.27536912 5.53680089 3.82942948 4.90108294 0 2 C0 1.34 0 0.68 0 0 Z " fill="#71C1DE" transform="translate(122,145)"/>
<path d="M0 0 C0.66 0 1.32 0 2 0 C2 0.66 2 1.32 2 2 C2.928125 2.103125 3.85625 2.20625 4.8125 2.3125 C8.03254358 3.0070192 9.02579865 3.47740939 11 6 C10.67 6.66 10.34 7.32 10 8 C9.443125 7.690625 8.88625 7.38125 8.3125 7.0625 C5.87459567 5.94238179 3.63775814 5.43962636 1 5 C0.67 3.35 0.34 1.7 0 0 Z " fill="#D7F6FB" transform="translate(145,154)"/>
<path d="M0 0 C2.04136395 -0.05451714 4.08315856 -0.09302485 6.125 -0.125 C7.83042969 -0.15980469 7.83042969 -0.15980469 9.5703125 -0.1953125 C13.05757767 0.00327891 15.7553862 0.7475199 19 2 C19 2.33 19 2.66 19 3 C12.34949576 3.24991456 6.43013467 2.73955334 0 1 C0 0.67 0 0.34 0 0 Z " fill="#7ECCE2" transform="translate(170,148)"/>
<path d="M0 0 C4.66666667 0.66666667 9.33333333 1.33333333 14 2 C14 2.66 14 3.32 14 4 C4.41885965 4.56359649 4.41885965 4.56359649 0 1 C0 0.67 0 0.34 0 0 Z " fill="#A6DEED" transform="translate(159,141)"/>
<path d="M0 0 C2.4375 0.8125 2.4375 0.8125 5 2 C5.33 2.99 5.66 3.98 6 5 C8.49759982 6.69882448 8.49759982 6.69882448 11 8 C9 9 9 9 6.8359375 8.44140625 C6.02382812 8.15136719 5.21171875 7.86132812 4.375 7.5625 C3.55773437 7.27503906 2.74046875 6.98757812 1.8984375 6.69140625 C1.27195313 6.46324219 0.64546875 6.23507813 0 6 C0.99 5.34 1.98 4.68 3 4 C0.525 3.01 0.525 3.01 -2 2 C-1.34 1.34 -0.68 0.68 0 0 Z " fill="#85CBE0" transform="translate(145,137)"/>
<path d="M0 0 C0.33 0 0.66 0 1 0 C1.05402274 2.10388569 1.09280256 4.20816714 1.125 6.3125 C1.14820313 7.48425781 1.17140625 8.65601563 1.1953125 9.86328125 C1 13 1 13 -1 16 C-1.99 15.67 -2.98 15.34 -4 15 C-3.34 12.03 -2.68 9.06 -2 6 C-1.67 6 -1.34 6 -1 6 C-0.67 4.02 -0.34 2.04 0 0 Z " fill="#314C40" transform="translate(36,120)"/>
<path d="M0 0 C0.33 0 0.66 0 1 0 C1.33 3.96 1.66 7.92 2 12 C0.68 11.34 -0.64 10.68 -2 10 C-2 10.66 -2 11.32 -2 12 C-2.66 12 -3.32 12 -4 12 C-4 10.68 -4 9.36 -4 8 C-3.34 8 -2.68 8 -2 8 C-2 7.34 -2 6.68 -2 6 C-1.34 6 -0.68 6 0 6 C0 4.02 0 2.04 0 0 Z " fill="#304139" transform="translate(127,122)"/>
<path d="M0 0 C3.36720387 1.39332574 4.9859524 2.9789286 7 6 C3 6 3 6 1 5 C0.34 5.99 -0.32 6.98 -1 8 C-1.04241723 5.66705225 -1.04092937 3.33297433 -1 1 C-0.67 0.67 -0.34 0.34 0 0 Z " fill="#2F4A3E" transform="translate(85,126)"/>
<path d="M0 0 C0.33 0.66 0.66 1.32 1 2 C0.01 3.485 0.01 3.485 -1 5 C-4.125 5.1875 -4.125 5.1875 -7 5 C-7 6.65 -7 8.3 -7 10 C-7.33 10 -7.66 10 -8 10 C-8 7.36 -8 4.72 -8 2 C-6.865625 1.855625 -5.73125 1.71125 -4.5625 1.5625 C-1.19222799 1.38828522 -1.19222799 1.38828522 0 0 Z " fill="#30443B" transform="translate(50,123)"/>
<path d="M0 0 C0 0.66 0 1.32 0 2 C-1.75 3.7265625 -1.75 3.7265625 -4 5.625 C-4.7425 6.25664062 -5.485 6.88828125 -6.25 7.5390625 C-6.8275 8.02117187 -7.405 8.50328125 -8 9 C-9 6 -9 6 -8.3125 3.9375 C-6.07945419 0.64109904 -3.89983906 0 0 0 Z " fill="#76B7CF" transform="translate(96,159)"/>
<path d="M0 0 C0.99 0 1.98 0 3 0 C3 1.32 3 2.64 3 4 C4.98 4 6.96 4 9 4 C5.86501708 5.85776765 3.62528568 6.20140476 0 6 C-0.38218767 4.34385343 -0.71395102 2.67542976 -1 1 C-0.67 0.67 -0.34 0.34 0 0 Z " fill="#3F636B" transform="translate(173,134)"/>
<path d="M0 0 C-1 1.5 -1 1.5 -3 3 C-5.71846235 3.27345479 -8.25677199 3.13491285 -11 3 C-11 2.34 -11 1.68 -11 1 C-3.57142857 -1.42857143 -3.57142857 -1.42857143 0 0 Z " fill="#57B6D4" transform="translate(197,163)"/>
<path d="M0 0 C4.75 0.75 4.75 0.75 7 3 C7 3.66 7 4.32 7 5 C4.69 5.33 2.38 5.66 0 6 C-0.33 5.01 -0.66 4.02 -1 3 C-0.34 3 0.32 3 1 3 C0.67 2.01 0.34 1.02 0 0 Z " fill="#89D8EB" transform="translate(159,161)"/>
<path d="M0 0 C1.65 0 3.3 0 5 0 C5.20625 0.804375 5.4125 1.60875 5.625 2.4375 C6.07875 3.283125 6.5325 4.12875 7 5 C10.05272465 5.89830839 10.05272465 5.89830839 13 6 C10.34501768 7.0169313 9.30844625 7.13022151 6.640625 6.00390625 C5.85171875 5.52824219 5.0628125 5.05257812 4.25 4.5625 C3.45078125 4.08941406 2.6515625 3.61632812 1.828125 3.12890625 C1.22484375 2.75636719 0.6215625 2.38382813 0 2 C0 1.34 0 0.68 0 0 Z " fill="#6EC0DC" transform="translate(150,140)"/>
<path d="M0 0 C2.875 0.1875 2.875 0.1875 6 1 C7.375 3.5625 7.375 3.5625 8 6 C6.68 6 5.36 6 4 6 C3.67 5.34 3.34 4.68 3 4 C2.01 3.67 1.02 3.34 0 3 C0 2.01 0 1.02 0 0 Z " fill="#6F8592" transform="translate(56,183)"/>
<path d="M0 0 C1.32 0.66 2.64 1.32 4 2 C3.21625 2.226875 2.4325 2.45375 1.625 2.6875 C-1.21875 3.78125 -1.21875 3.78125 -2.3125 6.625 C-2.539375 7.40875 -2.76625 8.1925 -3 9 C-4.65 8.67 -6.3 8.34 -8 8 C-5.33333333 5.33333333 -2.66666667 2.66666667 0 0 Z " fill="#4E5A62" transform="translate(69,176)"/>
<path d="M0 0 C0.99 0 1.98 0 3 0 C5.24828052 4.49656104 5.16682272 8.07872966 5 13 C4.67 13 4.34 13 4 13 C4 10.69 4 8.38 4 6 C3.01 6 2.02 6 1 6 C0.67 4.02 0.34 2.04 0 0 Z " fill="#2F483C" transform="translate(172,107)"/>
<path d="M0 0 C1.32 0 2.64 0 4 0 C3.67 1.65 3.34 3.3 3 5 C2.01 5.33 1.02 5.66 0 6 C-0.66 5.01 -1.32 4.02 -2 3 C-1.34 2.01 -0.68 1.02 0 0 Z " fill="#8EB4C7" transform="translate(228,113)"/>
<path d="M0 0 C0.99 0.33 1.98 0.66 3 1 C1.76446724 2.20254524 0.51097661 3.38666232 -0.75 4.5625 C-1.79414062 5.55443359 -1.79414062 5.55443359 -2.859375 6.56640625 C-5 8 -5 8 -7.265625 7.71484375 C-7.83796875 7.47894531 -8.4103125 7.24304688 -9 7 C-8.43410156 6.66226563 -7.86820313 6.32453125 -7.28515625 5.9765625 C-6.55167969 5.53054687 -5.81820312 5.08453125 -5.0625 4.625 C-4.33160156 4.18414062 -3.60070313 3.74328125 -2.84765625 3.2890625 C-0.86227728 2.1226016 -0.86227728 2.1226016 0 0 Z " fill="#7EB1C1" transform="translate(66,176)"/>
<path d="M0 0 C-2.37536671 1.58357781 -4.76505664 3.11593693 -7.1875 4.625 C-7.90292969 5.07101563 -8.61835937 5.51703125 -9.35546875 5.9765625 C-10.16951172 6.48316406 -10.16951172 6.48316406 -11 7 C-10.28125 3.21875 -10.28125 3.21875 -7.75 1.25 C-4.87860126 -0.05518125 -3.10902534 -0.26648789 0 0 Z " fill="#3F4F56" transform="translate(78,168)"/>
<path d="M0 0 C0 0.66 0 1.32 0 2 C-0.99 2 -1.98 2 -3 2 C-3 2.99 -3 3.98 -3 5 C-4.98 5.33 -6.96 5.66 -9 6 C-9 5.01 -9 4.02 -9 3 C-3.375 0 -3.375 0 0 0 Z " fill="#ACE1EF" transform="translate(200,157)"/>
<path d="M0 0 C7.42857143 -0.28571429 7.42857143 -0.28571429 11 2 C11 2.33 11 2.66 11 3 C3.57142857 3.28571429 3.57142857 3.28571429 0 1 C0 0.67 0 0.34 0 0 Z " fill="#75B6D0" transform="translate(162,140)"/>
<path d="M0 0 C3.3 0 6.6 0 10 0 C10 0.99 10 1.98 10 3 C8.375 3.6875 8.375 3.6875 6 4 C2.75 2.5625 2.75 2.5625 0 1 C0 0.67 0 0.34 0 0 Z " fill="#B8E3F0" transform="translate(133,140)"/>
<path d="M0 0 C2.97 0.495 2.97 0.495 6 1 C6 1.99 6 2.98 6 4 C4.35 4.33 2.7 4.66 1 5 C0.67 3.35 0.34 1.7 0 0 Z " fill="#98C1D8" transform="translate(215,133)"/>
<path d="M0 0 C0.12375 0.639375 0.2475 1.27875 0.375 1.9375 C0.684375 2.9584375 0.684375 2.9584375 1 4 C1.66 4.33 2.32 4.66 3 5 C0.03 4.67 -2.94 4.34 -6 4 C-6 3.34 -6 2.68 -6 2 C-4.02 1.34 -2.04 0.68 0 0 Z " fill="#B5E4F1" transform="translate(145,155)"/>
<path d="M0 0 C4.85963179 0.60745397 8.7405518 2.72758967 13 5 C13 5.33 13 5.66 13 6 C8.21193122 6.74813575 5.43289751 4.69491132 1.57421875 2.19140625 C1.05472656 1.79824219 0.53523438 1.40507812 0 1 C0 0.67 0 0.34 0 0 Z " fill="#CEEDF6" transform="translate(118,146)"/>
<path d="M0 0 C3.5625 0.25 3.5625 0.25 7 1 C7.33 1.66 7.66 2.32 8 3 C2.58461538 4.23076923 2.58461538 4.23076923 -0.375 3.0625 C-0.91125 2.711875 -1.4475 2.36125 -2 2 C-1.34 1.34 -0.68 0.68 0 0 Z " fill="#9DD4E6" transform="translate(141,139)"/>
<path d="M0 0 C-1.28913487 0.67154933 -2.58140204 1.33708859 -3.875 2 C-4.59429687 2.37125 -5.31359375 2.7425 -6.0546875 3.125 C-8 4 -8 4 -10 4 C-9 1 -9 1 -6.6875 -0.25 C-3.83402593 -1.04631835 -2.75197675 -0.8214856 0 0 Z " fill="#5DB6D2" transform="translate(115,159)"/>
<path d="M0 0 C2.475 0.495 2.475 0.495 5 1 C5.33 1.99 5.66 2.98 6 4 C4.02 4.33 2.04 4.66 0 5 C0 3.35 0 1.7 0 0 Z " fill="#70858F" transform="translate(89,153)"/>
<path d="M0 0 C2.64 0.33 5.28 0.66 8 1 C8.33 1.99 8.66 2.98 9 4 C7.35 4.33 5.7 4.66 4 5 C3.67 4.34 3.34 3.68 3 3 C2.01 2.67 1.02 2.34 0 2 C0 1.34 0 0.68 0 0 Z " fill="#3E95C5" transform="translate(155,149)"/>
<path d="M0 0 C2.64 0.33 5.28 0.66 8 1 C8 1.99 8 2.98 8 4 C6.02 3.34 4.04 2.68 2 2 C1.67 2.66 1.34 3.32 1 4 C0.34 3.67 -0.32 3.34 -1 3 C-0.67 2.01 -0.34 1.02 0 0 Z " fill="#9FD4E7" transform="translate(151,152)"/>
<path d="M0 0 C0.99 0 1.98 0 3 0 C2.25 5.75 2.25 5.75 0 8 C-1.125 2.25 -1.125 2.25 0 0 Z " fill="#CDEDF4" transform="translate(209,129)"/>
<path d="M0 0 C3 1 3 1 4 3 C0.6875 4.125 0.6875 4.125 -3 5 C-3.99 4.34 -4.98 3.68 -6 3 C-4.02 2.67 -2.04 2.34 0 2 C0 1.34 0 0.68 0 0 Z " fill="#56A6C2" transform="translate(77,170)"/>
<path d="M0 0 C0.66 0.33 1.32 0.66 2 1 C1.45276317 4.37462715 0.9451 6.08235 -1 9 C-1.99 8.67 -2.98 8.34 -4 8 C-3.2884375 7.13375 -3.2884375 7.13375 -2.5625 6.25 C-1.0515133 4.07417916 -0.45963849 2.57397552 0 0 Z " fill="#394F5A" transform="translate(208,147)"/>
<path d="M0 0 C2.64 0 5.28 0 8 0 C7.67 0.66 7.34 1.32 7 2 C5.68 2 4.36 2 3 2 C3 2.66 3 3.32 3 4 C1.68 3.67 0.36 3.34 -1 3 C-0.34 2.67 0.32 2.34 1 2 C0.67 1.34 0.34 0.68 0 0 Z " fill="#43ABD0" transform="translate(165,151)"/>
<path d="M0 0 C0 0.66 0 1.32 0 2 C-1.2065625 2.4021875 -1.2065625 2.4021875 -2.4375 2.8125 C-3.283125 3.204375 -4.12875 3.59625 -5 4 C-5.33 4.99 -5.66 5.98 -6 7 C-6.99 6.67 -7.98 6.34 -9 6 C-8.34 6 -7.68 6 -7 6 C-7 5.34 -7 4.68 -7 4 C-7.66 3.67 -8.32 3.34 -9 3 C-2.25 0 -2.25 0 0 0 Z " fill="#6FB7CE" transform="translate(106,150)"/>
<path d="M0 0 C3.875 1.75 3.875 1.75 5 4 C2.36 4 -0.28 4 -3 4 C-2.01 2.68 -1.02 1.36 0 0 Z " fill="#72AAC2" transform="translate(177,140)"/>
<path d="M0 0 C2.97 0.99 5.94 1.98 9 3 C8.67 3.66 8.34 4.32 8 5 C4.5625 4.1875 4.5625 4.1875 1 3 C0.67 2.01 0.34 1.02 0 0 Z " fill="#65BED7" transform="translate(151,162)"/>
<path d="M0 0 C1.258125 -0.04125 2.51625 -0.0825 3.8125 -0.125 C4.52019531 -0.14820313 5.22789062 -0.17140625 5.95703125 -0.1953125 C8 0 8 0 11 2 C10.67 2.66 10.34 3.32 10 4 C9.01 3.67 8.02 3.34 7 3 C7 2.34 7 1.68 7 1 C4.69 1 2.38 1 0 1 C0 0.67 0 0.34 0 0 Z " fill="#95D4E8" transform="translate(135,152)"/>
<path d="M0 0 C2.475 0.495 2.475 0.495 5 1 C5 1.99 5 2.98 5 4 C3.0625 3.6875 3.0625 3.6875 1 3 C0.67 2.01 0.34 1.02 0 0 Z " fill="#95BAD0" transform="translate(72,179)"/>
<path d="M0 0 C0.99 0 1.98 0 3 0 C3 0.99 3 1.98 3 3 C2.01 3 1.02 3 0 3 C0 2.01 0 1.02 0 0 Z " fill="#9CC0D6" transform="translate(234,123)"/>
</svg>
